<mxfile host="app.diagrams.net" modified="2024-04-12T05:58:01.471Z" agent="Mozilla/5.0 (Windows NT 10.0; Win64; x64) AppleWebKit/537.36 (KHTML, like Gecko) Chrome/123.0.0.0 Safari/537.36" etag="RVo4CddTpJkDq8t2VtBn" version="24.2.3" type="device" pages="3">
  <diagram name="개념정의" id="CztoPUEBJ60lxxgc0RVS">
    <mxGraphModel dx="1434" dy="780" grid="1" gridSize="10" guides="1" tooltips="1" connect="1" arrows="1" fold="1" page="1" pageScale="1" pageWidth="1169" pageHeight="1654" math="0" shadow="0">
      <root>
        <mxCell id="0" />
        <mxCell id="1" parent="0" />
        <mxCell id="iVvnH2McPJKhzLswOj3e-1" value="Entity" style="whiteSpace=wrap;html=1;align=center;" vertex="1" parent="1">
          <mxGeometry x="90" y="140" width="100" height="40" as="geometry" />
        </mxCell>
        <mxCell id="iVvnH2McPJKhzLswOj3e-2" value="개체: 사각형으로 표시" style="text;html=1;align=center;verticalAlign=middle;resizable=0;points=[];autosize=1;strokeColor=none;fillColor=none;" vertex="1" parent="1">
          <mxGeometry x="90" y="90" width="140" height="30" as="geometry" />
        </mxCell>
        <mxCell id="iVvnH2McPJKhzLswOj3e-4" value="Entity" style="shape=ext;margin=3;double=1;whiteSpace=wrap;html=1;align=center;" vertex="1" parent="1">
          <mxGeometry x="90" y="220" width="100" height="40" as="geometry" />
        </mxCell>
        <mxCell id="iVvnH2McPJKhzLswOj3e-5" value="강한개체" style="text;html=1;align=left;verticalAlign=middle;resizable=0;points=[];autosize=1;strokeColor=none;fillColor=none;" vertex="1" parent="1">
          <mxGeometry x="200" y="145" width="70" height="30" as="geometry" />
        </mxCell>
        <mxCell id="iVvnH2McPJKhzLswOj3e-6" value="약한개체: 다른 개체의 도움이 필요한 개체" style="text;html=1;align=left;verticalAlign=middle;resizable=0;points=[];autosize=1;strokeColor=none;fillColor=none;" vertex="1" parent="1">
          <mxGeometry x="200" y="230" width="250" height="30" as="geometry" />
        </mxCell>
        <mxCell id="iVvnH2McPJKhzLswOj3e-7" value="Attribute" style="ellipse;whiteSpace=wrap;html=1;align=center;" vertex="1" parent="1">
          <mxGeometry x="90" y="320" width="100" height="40" as="geometry" />
        </mxCell>
        <mxCell id="iVvnH2McPJKhzLswOj3e-8" value="속성: 개체가 가진성질 (타원형 표시)" style="text;html=1;align=center;verticalAlign=middle;resizable=0;points=[];autosize=1;strokeColor=none;fillColor=none;" vertex="1" parent="1">
          <mxGeometry x="90" y="280" width="220" height="30" as="geometry" />
        </mxCell>
        <mxCell id="iVvnH2McPJKhzLswOj3e-9" value="Attribute" style="ellipse;whiteSpace=wrap;html=1;align=center;fontStyle=4;" vertex="1" parent="1">
          <mxGeometry x="90" y="400" width="100" height="40" as="geometry" />
        </mxCell>
        <mxCell id="iVvnH2McPJKhzLswOj3e-10" value="일반적인 속성" style="text;html=1;align=left;verticalAlign=middle;resizable=0;points=[];autosize=1;strokeColor=none;fillColor=none;" vertex="1" parent="1">
          <mxGeometry x="205" y="325" width="100" height="30" as="geometry" />
        </mxCell>
        <mxCell id="iVvnH2McPJKhzLswOj3e-11" value="키 속성, 밑줄이 그어짐, 개체를 유일하게 식별" style="text;html=1;align=left;verticalAlign=middle;resizable=0;points=[];autosize=1;strokeColor=none;fillColor=none;" vertex="1" parent="1">
          <mxGeometry x="200" y="405" width="270" height="30" as="geometry" />
        </mxCell>
        <mxCell id="iVvnH2McPJKhzLswOj3e-12" value="&lt;span style=&quot;border-bottom: 1px dotted&quot;&gt;Attribute&lt;/span&gt;" style="ellipse;whiteSpace=wrap;html=1;align=center;" vertex="1" parent="1">
          <mxGeometry x="95" y="480" width="100" height="40" as="geometry" />
        </mxCell>
        <mxCell id="iVvnH2McPJKhzLswOj3e-13" value="다중값 속성: 이중타원, 여러개의 값을 갖는 속성&lt;div&gt;- 취미 속성은(수영, 독서, 에니메이션)등 여러값을 가질 수 있음&lt;/div&gt;" style="text;html=1;align=left;verticalAlign=middle;resizable=0;points=[];autosize=1;strokeColor=none;fillColor=none;" vertex="1" parent="1">
          <mxGeometry x="205" y="640" width="360" height="40" as="geometry" />
        </mxCell>
        <mxCell id="iVvnH2McPJKhzLswOj3e-14" value="Attribute" style="ellipse;whiteSpace=wrap;html=1;align=center;dashed=1;" vertex="1" parent="1">
          <mxGeometry x="90" y="565" width="100" height="40" as="geometry" />
        </mxCell>
        <mxCell id="iVvnH2McPJKhzLswOj3e-15" value="유도속성: 다른 속성으로 유도가 가능한 속성&lt;div&gt;- 나이(유도속성)는 출생연도(일반속성)에서 유추할 수 있음&lt;/div&gt;" style="text;html=1;align=left;verticalAlign=middle;resizable=0;points=[];autosize=1;strokeColor=none;fillColor=none;" vertex="1" parent="1">
          <mxGeometry x="200" y="565" width="340" height="40" as="geometry" />
        </mxCell>
        <mxCell id="iVvnH2McPJKhzLswOj3e-16" value="Attribute" style="ellipse;shape=doubleEllipse;margin=3;whiteSpace=wrap;html=1;align=center;" vertex="1" parent="1">
          <mxGeometry x="95" y="640" width="100" height="40" as="geometry" />
        </mxCell>
        <mxCell id="iVvnH2McPJKhzLswOj3e-17" value="약한 개체의 식별자, 점선 밑줄" style="text;html=1;align=left;verticalAlign=middle;resizable=0;points=[];autosize=1;strokeColor=none;fillColor=none;" vertex="1" parent="1">
          <mxGeometry x="205" y="485" width="180" height="30" as="geometry" />
        </mxCell>
        <mxCell id="iVvnH2McPJKhzLswOj3e-21" style="edgeStyle=orthogonalEdgeStyle;rounded=0;orthogonalLoop=1;jettySize=auto;html=1;exitX=1;exitY=1;exitDx=0;exitDy=0;" edge="1" parent="1" source="iVvnH2McPJKhzLswOj3e-18">
          <mxGeometry relative="1" as="geometry">
            <mxPoint x="160" y="780" as="targetPoint" />
          </mxGeometry>
        </mxCell>
        <mxCell id="iVvnH2McPJKhzLswOj3e-18" value="Relationship" style="shape=rhombus;perimeter=rhombusPerimeter;whiteSpace=wrap;html=1;align=center;" vertex="1" parent="1">
          <mxGeometry x="80" y="740" width="120" height="60" as="geometry" />
        </mxCell>
        <mxCell id="iVvnH2McPJKhzLswOj3e-19" value="개체와 개체 사이의 연관성을 나타내는 개념" style="text;html=1;align=left;verticalAlign=middle;resizable=0;points=[];autosize=1;strokeColor=none;fillColor=none;" vertex="1" parent="1">
          <mxGeometry x="205" y="755" width="260" height="30" as="geometry" />
        </mxCell>
        <mxCell id="iVvnH2McPJKhzLswOj3e-20" value="관계" style="text;html=1;align=center;verticalAlign=middle;resizable=0;points=[];autosize=1;strokeColor=none;fillColor=none;" vertex="1" parent="1">
          <mxGeometry x="115" y="710" width="50" height="30" as="geometry" />
        </mxCell>
        <mxCell id="iVvnH2McPJKhzLswOj3e-22" value="소속" style="shape=rhombus;perimeter=rhombusPerimeter;whiteSpace=wrap;html=1;align=center;" vertex="1" parent="1">
          <mxGeometry x="140" y="855" width="120" height="60" as="geometry" />
        </mxCell>
        <mxCell id="iVvnH2McPJKhzLswOj3e-23" value="학과" style="whiteSpace=wrap;html=1;align=center;" vertex="1" parent="1">
          <mxGeometry x="300" y="865" width="100" height="40" as="geometry" />
        </mxCell>
        <mxCell id="iVvnH2McPJKhzLswOj3e-24" value="" style="endArrow=none;html=1;rounded=0;" edge="1" parent="1">
          <mxGeometry relative="1" as="geometry">
            <mxPoint x="270" y="530" as="sourcePoint" />
            <mxPoint x="430" y="530" as="targetPoint" />
          </mxGeometry>
        </mxCell>
        <mxCell id="iVvnH2McPJKhzLswOj3e-25" value="1" style="resizable=0;html=1;whiteSpace=wrap;align=right;verticalAlign=bottom;" connectable="0" vertex="1" parent="iVvnH2McPJKhzLswOj3e-24">
          <mxGeometry x="1" relative="1" as="geometry" />
        </mxCell>
        <mxCell id="iVvnH2McPJKhzLswOj3e-27" value="" style="line;strokeWidth=1;rotatable=0;dashed=0;labelPosition=right;align=left;verticalAlign=middle;spacingTop=0;spacingLeft=6;points=[];portConstraint=eastwest;" vertex="1" parent="1">
          <mxGeometry x="320" y="630" width="60" height="10" as="geometry" />
        </mxCell>
        <mxCell id="iVvnH2McPJKhzLswOj3e-29" value="" style="line;strokeWidth=1;rotatable=0;dashed=0;labelPosition=right;align=left;verticalAlign=middle;spacingTop=0;spacingLeft=6;points=[];portConstraint=eastwest;" vertex="1" parent="1">
          <mxGeometry x="260" y="880" width="40" height="10" as="geometry" />
        </mxCell>
        <mxCell id="iVvnH2McPJKhzLswOj3e-31" value="" style="line;strokeWidth=1;rotatable=0;dashed=0;labelPosition=right;align=left;verticalAlign=middle;spacingTop=0;spacingLeft=6;points=[];portConstraint=eastwest;" vertex="1" parent="1">
          <mxGeometry x="100" y="862.5" width="40" height="45" as="geometry" />
        </mxCell>
        <mxCell id="iVvnH2McPJKhzLswOj3e-32" value="학생" style="whiteSpace=wrap;html=1;align=center;" vertex="1" parent="1">
          <mxGeometry y="865" width="100" height="40" as="geometry" />
        </mxCell>
        <mxCell id="iVvnH2McPJKhzLswOj3e-33" value="이진관계: 두 개체가 관계를 맺는 경우" style="text;html=1;align=center;verticalAlign=middle;resizable=0;points=[];autosize=1;strokeColor=none;fillColor=none;" vertex="1" parent="1">
          <mxGeometry x="30" y="820" width="220" height="30" as="geometry" />
        </mxCell>
        <mxCell id="iVvnH2McPJKhzLswOj3e-34" value="수행" style="shape=rhombus;perimeter=rhombusPerimeter;whiteSpace=wrap;html=1;align=center;" vertex="1" parent="1">
          <mxGeometry x="140" y="965" width="120" height="60" as="geometry" />
        </mxCell>
        <mxCell id="iVvnH2McPJKhzLswOj3e-35" value="프로젝트" style="whiteSpace=wrap;html=1;align=center;" vertex="1" parent="1">
          <mxGeometry x="300" y="975" width="100" height="40" as="geometry" />
        </mxCell>
        <mxCell id="iVvnH2McPJKhzLswOj3e-36" value="" style="line;strokeWidth=1;rotatable=0;dashed=0;labelPosition=right;align=left;verticalAlign=middle;spacingTop=0;spacingLeft=6;points=[];portConstraint=eastwest;" vertex="1" parent="1">
          <mxGeometry x="260" y="990" width="40" height="10" as="geometry" />
        </mxCell>
        <mxCell id="iVvnH2McPJKhzLswOj3e-37" value="" style="line;strokeWidth=1;rotatable=0;dashed=0;labelPosition=right;align=left;verticalAlign=middle;spacingTop=0;spacingLeft=6;points=[];portConstraint=eastwest;" vertex="1" parent="1">
          <mxGeometry x="100" y="972.5" width="40" height="45" as="geometry" />
        </mxCell>
        <mxCell id="iVvnH2McPJKhzLswOj3e-38" value="직원" style="whiteSpace=wrap;html=1;align=center;" vertex="1" parent="1">
          <mxGeometry y="975" width="100" height="40" as="geometry" />
        </mxCell>
        <mxCell id="iVvnH2McPJKhzLswOj3e-39" value="삼진관계: 세 개체가 관계를 맺는 경우" style="text;html=1;align=center;verticalAlign=middle;resizable=0;points=[];autosize=1;strokeColor=none;fillColor=none;" vertex="1" parent="1">
          <mxGeometry x="30" y="930" width="220" height="30" as="geometry" />
        </mxCell>
        <mxCell id="iVvnH2McPJKhzLswOj3e-40" value="부품" style="whiteSpace=wrap;html=1;align=center;" vertex="1" parent="1">
          <mxGeometry x="150" y="1060" width="100" height="40" as="geometry" />
        </mxCell>
        <mxCell id="iVvnH2McPJKhzLswOj3e-46" value="" style="line;strokeWidth=2;direction=south;html=1;fontSize=2;" vertex="1" parent="1">
          <mxGeometry x="195" y="1025" width="10" height="35" as="geometry" />
        </mxCell>
        <mxCell id="iVvnH2McPJKhzLswOj3e-47" value="사용" style="shape=rhombus;perimeter=rhombusPerimeter;whiteSpace=wrap;html=1;align=center;" vertex="1" parent="1">
          <mxGeometry x="140" y="1160" width="120" height="60" as="geometry" />
        </mxCell>
        <mxCell id="iVvnH2McPJKhzLswOj3e-48" value="컴퓨터" style="whiteSpace=wrap;html=1;align=center;" vertex="1" parent="1">
          <mxGeometry x="300" y="1170" width="100" height="40" as="geometry" />
        </mxCell>
        <mxCell id="iVvnH2McPJKhzLswOj3e-51" value="학생" style="whiteSpace=wrap;html=1;align=center;" vertex="1" parent="1">
          <mxGeometry y="1170" width="100" height="40" as="geometry" />
        </mxCell>
        <mxCell id="iVvnH2McPJKhzLswOj3e-52" value="일대일 관계: 좌측 타입의 객체가 우측 타입의 개체와 일대일 대응&lt;div&gt;- 한 명의 학생이 한대의 컴퓨터만 사용하는 경우&lt;/div&gt;" style="text;html=1;align=left;verticalAlign=middle;resizable=0;points=[];autosize=1;strokeColor=none;fillColor=none;" vertex="1" parent="1">
          <mxGeometry x="30" y="1120" width="370" height="40" as="geometry" />
        </mxCell>
        <mxCell id="iVvnH2McPJKhzLswOj3e-53" value="" style="endArrow=none;html=1;rounded=0;" edge="1" parent="1">
          <mxGeometry relative="1" as="geometry">
            <mxPoint x="260" y="1189.5" as="sourcePoint" />
            <mxPoint x="300" y="1190" as="targetPoint" />
          </mxGeometry>
        </mxCell>
        <mxCell id="iVvnH2McPJKhzLswOj3e-54" value="1" style="resizable=0;html=1;whiteSpace=wrap;align=right;verticalAlign=bottom;" connectable="0" vertex="1" parent="iVvnH2McPJKhzLswOj3e-53">
          <mxGeometry x="1" relative="1" as="geometry" />
        </mxCell>
        <mxCell id="iVvnH2McPJKhzLswOj3e-55" value="" style="endArrow=none;html=1;rounded=0;entryX=1;entryY=0.5;entryDx=0;entryDy=0;exitX=0;exitY=0.5;exitDx=0;exitDy=0;" edge="1" parent="1" source="iVvnH2McPJKhzLswOj3e-47" target="iVvnH2McPJKhzLswOj3e-51">
          <mxGeometry relative="1" as="geometry">
            <mxPoint x="170" y="1225" as="sourcePoint" />
            <mxPoint x="140" y="1190" as="targetPoint" />
          </mxGeometry>
        </mxCell>
        <mxCell id="iVvnH2McPJKhzLswOj3e-56" value="1" style="resizable=0;html=1;whiteSpace=wrap;align=right;verticalAlign=bottom;" connectable="0" vertex="1" parent="iVvnH2McPJKhzLswOj3e-55">
          <mxGeometry x="1" relative="1" as="geometry" />
        </mxCell>
        <mxCell id="iVvnH2McPJKhzLswOj3e-57" value="소속" style="shape=rhombus;perimeter=rhombusPerimeter;whiteSpace=wrap;html=1;align=center;" vertex="1" parent="1">
          <mxGeometry x="140" y="1280" width="120" height="60" as="geometry" />
        </mxCell>
        <mxCell id="iVvnH2McPJKhzLswOj3e-58" value="학과" style="whiteSpace=wrap;html=1;align=center;" vertex="1" parent="1">
          <mxGeometry x="300" y="1290" width="100" height="40" as="geometry" />
        </mxCell>
        <mxCell id="iVvnH2McPJKhzLswOj3e-59" value="학생" style="whiteSpace=wrap;html=1;align=center;" vertex="1" parent="1">
          <mxGeometry y="1290" width="100" height="40" as="geometry" />
        </mxCell>
        <mxCell id="iVvnH2McPJKhzLswOj3e-60" value="일대 다&amp;nbsp; 관계(N:1, 1:N): 가장 많이 볼 수 있는 관계&lt;div&gt;하나의 개체다 다른 개체의 여려 개와 관계를 맺는 경우&lt;/div&gt;&lt;div&gt;- 하나의 학과에 여러 학생이 소속되는 경우&lt;/div&gt;" style="text;html=1;align=left;verticalAlign=middle;resizable=0;points=[];autosize=1;strokeColor=none;fillColor=none;" vertex="1" parent="1">
          <mxGeometry x="30" y="1230" width="310" height="60" as="geometry" />
        </mxCell>
        <mxCell id="iVvnH2McPJKhzLswOj3e-61" value="" style="endArrow=none;html=1;rounded=0;" edge="1" parent="1">
          <mxGeometry relative="1" as="geometry">
            <mxPoint x="260" y="1309.5" as="sourcePoint" />
            <mxPoint x="300" y="1310" as="targetPoint" />
          </mxGeometry>
        </mxCell>
        <mxCell id="iVvnH2McPJKhzLswOj3e-62" value="1" style="resizable=0;html=1;whiteSpace=wrap;align=right;verticalAlign=bottom;" connectable="0" vertex="1" parent="iVvnH2McPJKhzLswOj3e-61">
          <mxGeometry x="1" relative="1" as="geometry" />
        </mxCell>
        <mxCell id="iVvnH2McPJKhzLswOj3e-65" value="" style="endArrow=none;html=1;rounded=0;entryX=1;entryY=0.5;entryDx=0;entryDy=0;exitX=0;exitY=0.5;exitDx=0;exitDy=0;" edge="1" parent="1" source="iVvnH2McPJKhzLswOj3e-57" target="iVvnH2McPJKhzLswOj3e-59">
          <mxGeometry relative="1" as="geometry">
            <mxPoint x="470" y="1160" as="sourcePoint" />
            <mxPoint x="630" y="1160" as="targetPoint" />
          </mxGeometry>
        </mxCell>
        <mxCell id="iVvnH2McPJKhzLswOj3e-66" value="N" style="resizable=0;html=1;whiteSpace=wrap;align=right;verticalAlign=bottom;" connectable="0" vertex="1" parent="iVvnH2McPJKhzLswOj3e-65">
          <mxGeometry x="1" relative="1" as="geometry" />
        </mxCell>
        <mxCell id="iVvnH2McPJKhzLswOj3e-67" value="수강" style="shape=rhombus;perimeter=rhombusPerimeter;whiteSpace=wrap;html=1;align=center;" vertex="1" parent="1">
          <mxGeometry x="140" y="1400" width="120" height="60" as="geometry" />
        </mxCell>
        <mxCell id="iVvnH2McPJKhzLswOj3e-68" value="수업" style="whiteSpace=wrap;html=1;align=center;" vertex="1" parent="1">
          <mxGeometry x="300" y="1410" width="100" height="40" as="geometry" />
        </mxCell>
        <mxCell id="iVvnH2McPJKhzLswOj3e-69" value="학생" style="whiteSpace=wrap;html=1;align=center;" vertex="1" parent="1">
          <mxGeometry y="1410" width="100" height="40" as="geometry" />
        </mxCell>
        <mxCell id="iVvnH2McPJKhzLswOj3e-70" value="다대 다&amp;nbsp; 관계(N:M): 개체가 서로 복합적인 관계를 맺는 경우&lt;br&gt;&lt;div&gt;- 여러 학생이 여러 수업을 수강할 수 있는 관계&lt;/div&gt;" style="text;html=1;align=left;verticalAlign=middle;resizable=0;points=[];autosize=1;strokeColor=none;fillColor=none;" vertex="1" parent="1">
          <mxGeometry x="30" y="1360" width="340" height="40" as="geometry" />
        </mxCell>
        <mxCell id="iVvnH2McPJKhzLswOj3e-73" value="" style="endArrow=none;html=1;rounded=0;entryX=1;entryY=0.5;entryDx=0;entryDy=0;exitX=0;exitY=0.5;exitDx=0;exitDy=0;" edge="1" parent="1" source="iVvnH2McPJKhzLswOj3e-67" target="iVvnH2McPJKhzLswOj3e-69">
          <mxGeometry relative="1" as="geometry">
            <mxPoint x="470" y="1280" as="sourcePoint" />
            <mxPoint x="630" y="1280" as="targetPoint" />
          </mxGeometry>
        </mxCell>
        <mxCell id="iVvnH2McPJKhzLswOj3e-74" value="N" style="resizable=0;html=1;whiteSpace=wrap;align=right;verticalAlign=bottom;" connectable="0" vertex="1" parent="iVvnH2McPJKhzLswOj3e-73">
          <mxGeometry x="1" relative="1" as="geometry" />
        </mxCell>
        <mxCell id="iVvnH2McPJKhzLswOj3e-76" value="" style="endArrow=none;html=1;rounded=0;entryX=0;entryY=0.5;entryDx=0;entryDy=0;" edge="1" parent="1" target="iVvnH2McPJKhzLswOj3e-68">
          <mxGeometry relative="1" as="geometry">
            <mxPoint x="260" y="1430" as="sourcePoint" />
            <mxPoint x="110" y="1440" as="targetPoint" />
          </mxGeometry>
        </mxCell>
        <mxCell id="iVvnH2McPJKhzLswOj3e-77" value="N" style="resizable=0;html=1;whiteSpace=wrap;align=right;verticalAlign=bottom;" connectable="0" vertex="1" parent="iVvnH2McPJKhzLswOj3e-76">
          <mxGeometry x="1" relative="1" as="geometry" />
        </mxCell>
      </root>
    </mxGraphModel>
  </diagram>
  <diagram id="CjFL7GchgrOEHeocUdRE" name="매핑(사상)">
    <mxGraphModel dx="2261" dy="1949" grid="1" gridSize="10" guides="1" tooltips="1" connect="1" arrows="1" fold="1" page="1" pageScale="1" pageWidth="827" pageHeight="1169" math="0" shadow="0">
      <root>
        <mxCell id="0" />
        <mxCell id="1" parent="0" />
        <mxCell id="8V2ItvtZjwWe2fCZEA3E-1" value="직원" style="whiteSpace=wrap;html=1;align=center;" vertex="1" parent="1">
          <mxGeometry x="326.5" y="120" width="100" height="40" as="geometry" />
        </mxCell>
        <mxCell id="8V2ItvtZjwWe2fCZEA3E-4" value="" style="endArrow=none;html=1;rounded=0;exitX=1;exitY=0.5;exitDx=0;exitDy=0;entryX=0;entryY=0.5;entryDx=0;entryDy=0;" edge="1" parent="1" target="8V2ItvtZjwWe2fCZEA3E-1">
          <mxGeometry width="50" height="50" relative="1" as="geometry">
            <mxPoint x="206.5" y="140" as="sourcePoint" />
            <mxPoint x="436.5" y="220" as="targetPoint" />
          </mxGeometry>
        </mxCell>
        <mxCell id="8V2ItvtZjwWe2fCZEA3E-5" value="이름" style="ellipse;whiteSpace=wrap;html=1;align=center;" vertex="1" parent="1">
          <mxGeometry x="106.5" y="190" width="100" height="40" as="geometry" />
        </mxCell>
        <mxCell id="8V2ItvtZjwWe2fCZEA3E-6" value="" style="endArrow=none;html=1;rounded=0;exitX=1;exitY=0.5;exitDx=0;exitDy=0;" edge="1" parent="1" source="8V2ItvtZjwWe2fCZEA3E-5">
          <mxGeometry width="50" height="50" relative="1" as="geometry">
            <mxPoint x="216.5" y="200" as="sourcePoint" />
            <mxPoint x="326.5" y="140" as="targetPoint" />
          </mxGeometry>
        </mxCell>
        <mxCell id="8V2ItvtZjwWe2fCZEA3E-7" value="직원번호" style="ellipse;whiteSpace=wrap;html=1;align=center;fontStyle=4;" vertex="1" parent="1">
          <mxGeometry x="106.5" y="120" width="100" height="40" as="geometry" />
        </mxCell>
        <mxCell id="8V2ItvtZjwWe2fCZEA3E-8" value="직원(&lt;u&gt;직원번호&lt;/u&gt;,이름)" style="text;html=1;align=left;verticalAlign=middle;resizable=0;points=[];autosize=1;strokeColor=none;fillColor=none;" vertex="1" parent="1">
          <mxGeometry x="660" y="100" width="130" height="30" as="geometry" />
        </mxCell>
        <mxCell id="8V2ItvtZjwWe2fCZEA3E-9" value="직원" style="shape=table;startSize=30;container=1;collapsible=1;childLayout=tableLayout;fixedRows=1;rowLines=0;fontStyle=1;align=center;resizeLast=1;html=1;" vertex="1" parent="1">
          <mxGeometry x="660" y="130" width="180" height="150" as="geometry" />
        </mxCell>
        <mxCell id="8V2ItvtZjwWe2fCZEA3E-10" value="" style="shape=tableRow;horizontal=0;startSize=0;swimlaneHead=0;swimlaneBody=0;fillColor=none;collapsible=0;dropTarget=0;points=[[0,0.5],[1,0.5]];portConstraint=eastwest;top=0;left=0;right=0;bottom=1;" vertex="1" parent="8V2ItvtZjwWe2fCZEA3E-9">
          <mxGeometry y="30" width="180" height="30" as="geometry" />
        </mxCell>
        <mxCell id="8V2ItvtZjwWe2fCZEA3E-11" value="PK" style="shape=partialRectangle;connectable=0;fillColor=none;top=0;left=0;bottom=0;right=0;fontStyle=1;overflow=hidden;whiteSpace=wrap;html=1;" vertex="1" parent="8V2ItvtZjwWe2fCZEA3E-10">
          <mxGeometry width="30" height="30" as="geometry">
            <mxRectangle width="30" height="30" as="alternateBounds" />
          </mxGeometry>
        </mxCell>
        <mxCell id="8V2ItvtZjwWe2fCZEA3E-12" value="직원번호" style="shape=partialRectangle;connectable=0;fillColor=none;top=0;left=0;bottom=0;right=0;align=left;spacingLeft=6;fontStyle=5;overflow=hidden;whiteSpace=wrap;html=1;" vertex="1" parent="8V2ItvtZjwWe2fCZEA3E-10">
          <mxGeometry x="30" width="150" height="30" as="geometry">
            <mxRectangle width="150" height="30" as="alternateBounds" />
          </mxGeometry>
        </mxCell>
        <mxCell id="8V2ItvtZjwWe2fCZEA3E-13" value="" style="shape=tableRow;horizontal=0;startSize=0;swimlaneHead=0;swimlaneBody=0;fillColor=none;collapsible=0;dropTarget=0;points=[[0,0.5],[1,0.5]];portConstraint=eastwest;top=0;left=0;right=0;bottom=0;" vertex="1" parent="8V2ItvtZjwWe2fCZEA3E-9">
          <mxGeometry y="60" width="180" height="30" as="geometry" />
        </mxCell>
        <mxCell id="8V2ItvtZjwWe2fCZEA3E-14" value="" style="shape=partialRectangle;connectable=0;fillColor=none;top=0;left=0;bottom=0;right=0;editable=1;overflow=hidden;whiteSpace=wrap;html=1;" vertex="1" parent="8V2ItvtZjwWe2fCZEA3E-13">
          <mxGeometry width="30" height="30" as="geometry">
            <mxRectangle width="30" height="30" as="alternateBounds" />
          </mxGeometry>
        </mxCell>
        <mxCell id="8V2ItvtZjwWe2fCZEA3E-15" value="이름" style="shape=partialRectangle;connectable=0;fillColor=none;top=0;left=0;bottom=0;right=0;align=left;spacingLeft=6;overflow=hidden;whiteSpace=wrap;html=1;" vertex="1" parent="8V2ItvtZjwWe2fCZEA3E-13">
          <mxGeometry x="30" width="150" height="30" as="geometry">
            <mxRectangle width="150" height="30" as="alternateBounds" />
          </mxGeometry>
        </mxCell>
        <mxCell id="8V2ItvtZjwWe2fCZEA3E-16" value="" style="shape=tableRow;horizontal=0;startSize=0;swimlaneHead=0;swimlaneBody=0;fillColor=none;collapsible=0;dropTarget=0;points=[[0,0.5],[1,0.5]];portConstraint=eastwest;top=0;left=0;right=0;bottom=0;" vertex="1" parent="8V2ItvtZjwWe2fCZEA3E-9">
          <mxGeometry y="90" width="180" height="30" as="geometry" />
        </mxCell>
        <mxCell id="8V2ItvtZjwWe2fCZEA3E-17" value="" style="shape=partialRectangle;connectable=0;fillColor=none;top=0;left=0;bottom=0;right=0;editable=1;overflow=hidden;whiteSpace=wrap;html=1;" vertex="1" parent="8V2ItvtZjwWe2fCZEA3E-16">
          <mxGeometry width="30" height="30" as="geometry">
            <mxRectangle width="30" height="30" as="alternateBounds" />
          </mxGeometry>
        </mxCell>
        <mxCell id="8V2ItvtZjwWe2fCZEA3E-18" value="전화번호" style="shape=partialRectangle;connectable=0;fillColor=none;top=0;left=0;bottom=0;right=0;align=left;spacingLeft=6;overflow=hidden;whiteSpace=wrap;html=1;" vertex="1" parent="8V2ItvtZjwWe2fCZEA3E-16">
          <mxGeometry x="30" width="150" height="30" as="geometry">
            <mxRectangle width="150" height="30" as="alternateBounds" />
          </mxGeometry>
        </mxCell>
        <mxCell id="8V2ItvtZjwWe2fCZEA3E-19" value="" style="shape=tableRow;horizontal=0;startSize=0;swimlaneHead=0;swimlaneBody=0;fillColor=none;collapsible=0;dropTarget=0;points=[[0,0.5],[1,0.5]];portConstraint=eastwest;top=0;left=0;right=0;bottom=0;" vertex="1" parent="8V2ItvtZjwWe2fCZEA3E-9">
          <mxGeometry y="120" width="180" height="30" as="geometry" />
        </mxCell>
        <mxCell id="8V2ItvtZjwWe2fCZEA3E-20" value="" style="shape=partialRectangle;connectable=0;fillColor=none;top=0;left=0;bottom=0;right=0;editable=1;overflow=hidden;whiteSpace=wrap;html=1;" vertex="1" parent="8V2ItvtZjwWe2fCZEA3E-19">
          <mxGeometry width="30" height="30" as="geometry">
            <mxRectangle width="30" height="30" as="alternateBounds" />
          </mxGeometry>
        </mxCell>
        <mxCell id="8V2ItvtZjwWe2fCZEA3E-21" value="기타" style="shape=partialRectangle;connectable=0;fillColor=none;top=0;left=0;bottom=0;right=0;align=left;spacingLeft=6;overflow=hidden;whiteSpace=wrap;html=1;" vertex="1" parent="8V2ItvtZjwWe2fCZEA3E-19">
          <mxGeometry x="30" width="150" height="30" as="geometry">
            <mxRectangle width="150" height="30" as="alternateBounds" />
          </mxGeometry>
        </mxCell>
        <mxCell id="8V2ItvtZjwWe2fCZEA3E-22" value="&lt;font style=&quot;font-size: 23px;&quot;&gt;ER 모델을 관계데이터 모델로 매핑하기&lt;/font&gt;" style="text;html=1;align=center;verticalAlign=middle;resizable=0;points=[];autosize=1;strokeColor=none;fillColor=none;fontStyle=1" vertex="1" parent="1">
          <mxGeometry x="280" y="-40" width="430" height="40" as="geometry" />
        </mxCell>
        <mxCell id="8V2ItvtZjwWe2fCZEA3E-23" value="ER 모델" style="text;html=1;align=center;verticalAlign=middle;resizable=0;points=[];autosize=1;strokeColor=none;fillColor=none;fontStyle=1;fontSize=18;" vertex="1" parent="1">
          <mxGeometry x="215" y="40" width="90" height="40" as="geometry" />
        </mxCell>
        <mxCell id="8V2ItvtZjwWe2fCZEA3E-24" value="관계데이터 모델" style="text;html=1;align=center;verticalAlign=middle;resizable=0;points=[];autosize=1;strokeColor=none;fillColor=none;fontStyle=1;fontSize=18;" vertex="1" parent="1">
          <mxGeometry x="670" y="40" width="150" height="40" as="geometry" />
        </mxCell>
        <mxCell id="3_Jl5_TaxesmlZ9jGOSC-1" value="소속" style="shape=rhombus;perimeter=rhombusPerimeter;whiteSpace=wrap;html=1;align=center;" vertex="1" parent="1">
          <mxGeometry x="200" y="410" width="120" height="60" as="geometry" />
        </mxCell>
        <mxCell id="3_Jl5_TaxesmlZ9jGOSC-2" value="학과" style="whiteSpace=wrap;html=1;align=center;" vertex="1" parent="1">
          <mxGeometry x="360" y="420" width="100" height="40" as="geometry" />
        </mxCell>
        <mxCell id="3_Jl5_TaxesmlZ9jGOSC-3" value="학생" style="whiteSpace=wrap;html=1;align=center;" vertex="1" parent="1">
          <mxGeometry x="60" y="420" width="100" height="40" as="geometry" />
        </mxCell>
        <mxCell id="3_Jl5_TaxesmlZ9jGOSC-4" value="" style="endArrow=none;html=1;rounded=0;" edge="1" parent="1">
          <mxGeometry relative="1" as="geometry">
            <mxPoint x="320" y="439.5" as="sourcePoint" />
            <mxPoint x="360" y="440" as="targetPoint" />
          </mxGeometry>
        </mxCell>
        <mxCell id="3_Jl5_TaxesmlZ9jGOSC-5" value="1" style="resizable=0;html=1;whiteSpace=wrap;align=right;verticalAlign=bottom;" connectable="0" vertex="1" parent="3_Jl5_TaxesmlZ9jGOSC-4">
          <mxGeometry x="1" relative="1" as="geometry" />
        </mxCell>
        <mxCell id="3_Jl5_TaxesmlZ9jGOSC-6" value="" style="endArrow=none;html=1;rounded=0;entryX=1;entryY=0.5;entryDx=0;entryDy=0;exitX=0;exitY=0.5;exitDx=0;exitDy=0;" edge="1" parent="1" source="3_Jl5_TaxesmlZ9jGOSC-1" target="3_Jl5_TaxesmlZ9jGOSC-3">
          <mxGeometry relative="1" as="geometry">
            <mxPoint x="530" y="290" as="sourcePoint" />
            <mxPoint x="690" y="290" as="targetPoint" />
          </mxGeometry>
        </mxCell>
        <mxCell id="3_Jl5_TaxesmlZ9jGOSC-7" value="N" style="resizable=0;html=1;whiteSpace=wrap;align=right;verticalAlign=bottom;" connectable="0" vertex="1" parent="3_Jl5_TaxesmlZ9jGOSC-6">
          <mxGeometry x="1" relative="1" as="geometry" />
        </mxCell>
        <mxCell id="3_Jl5_TaxesmlZ9jGOSC-8" value="" style="html=1;shadow=0;dashed=0;align=center;verticalAlign=middle;shape=mxgraph.arrows2.arrow;dy=0.6;dx=40;notch=0;" vertex="1" parent="1">
          <mxGeometry x="480" y="130" width="56" height="35" as="geometry" />
        </mxCell>
        <mxCell id="3_Jl5_TaxesmlZ9jGOSC-10" value="학과" style="shape=table;startSize=30;container=1;collapsible=1;childLayout=tableLayout;fixedRows=1;rowLines=0;fontStyle=1;align=center;resizeLast=1;html=1;" vertex="1" parent="1">
          <mxGeometry x="760" y="410" width="180" height="150" as="geometry" />
        </mxCell>
        <mxCell id="3_Jl5_TaxesmlZ9jGOSC-11" value="" style="shape=tableRow;horizontal=0;startSize=0;swimlaneHead=0;swimlaneBody=0;fillColor=none;collapsible=0;dropTarget=0;points=[[0,0.5],[1,0.5]];portConstraint=eastwest;top=0;left=0;right=0;bottom=1;" vertex="1" parent="3_Jl5_TaxesmlZ9jGOSC-10">
          <mxGeometry y="30" width="180" height="30" as="geometry" />
        </mxCell>
        <mxCell id="3_Jl5_TaxesmlZ9jGOSC-12" value="PK" style="shape=partialRectangle;connectable=0;fillColor=none;top=0;left=0;bottom=0;right=0;fontStyle=1;overflow=hidden;whiteSpace=wrap;html=1;" vertex="1" parent="3_Jl5_TaxesmlZ9jGOSC-11">
          <mxGeometry width="30" height="30" as="geometry">
            <mxRectangle width="30" height="30" as="alternateBounds" />
          </mxGeometry>
        </mxCell>
        <mxCell id="3_Jl5_TaxesmlZ9jGOSC-13" value="학과코드" style="shape=partialRectangle;connectable=0;fillColor=none;top=0;left=0;bottom=0;right=0;align=left;spacingLeft=6;fontStyle=5;overflow=hidden;whiteSpace=wrap;html=1;" vertex="1" parent="3_Jl5_TaxesmlZ9jGOSC-11">
          <mxGeometry x="30" width="150" height="30" as="geometry">
            <mxRectangle width="150" height="30" as="alternateBounds" />
          </mxGeometry>
        </mxCell>
        <mxCell id="3_Jl5_TaxesmlZ9jGOSC-14" value="" style="shape=tableRow;horizontal=0;startSize=0;swimlaneHead=0;swimlaneBody=0;fillColor=none;collapsible=0;dropTarget=0;points=[[0,0.5],[1,0.5]];portConstraint=eastwest;top=0;left=0;right=0;bottom=0;" vertex="1" parent="3_Jl5_TaxesmlZ9jGOSC-10">
          <mxGeometry y="60" width="180" height="30" as="geometry" />
        </mxCell>
        <mxCell id="3_Jl5_TaxesmlZ9jGOSC-15" value="" style="shape=partialRectangle;connectable=0;fillColor=none;top=0;left=0;bottom=0;right=0;editable=1;overflow=hidden;whiteSpace=wrap;html=1;" vertex="1" parent="3_Jl5_TaxesmlZ9jGOSC-14">
          <mxGeometry width="30" height="30" as="geometry">
            <mxRectangle width="30" height="30" as="alternateBounds" />
          </mxGeometry>
        </mxCell>
        <mxCell id="3_Jl5_TaxesmlZ9jGOSC-16" value="학과명" style="shape=partialRectangle;connectable=0;fillColor=none;top=0;left=0;bottom=0;right=0;align=left;spacingLeft=6;overflow=hidden;whiteSpace=wrap;html=1;" vertex="1" parent="3_Jl5_TaxesmlZ9jGOSC-14">
          <mxGeometry x="30" width="150" height="30" as="geometry">
            <mxRectangle width="150" height="30" as="alternateBounds" />
          </mxGeometry>
        </mxCell>
        <mxCell id="3_Jl5_TaxesmlZ9jGOSC-17" value="" style="shape=tableRow;horizontal=0;startSize=0;swimlaneHead=0;swimlaneBody=0;fillColor=none;collapsible=0;dropTarget=0;points=[[0,0.5],[1,0.5]];portConstraint=eastwest;top=0;left=0;right=0;bottom=0;" vertex="1" parent="3_Jl5_TaxesmlZ9jGOSC-10">
          <mxGeometry y="90" width="180" height="30" as="geometry" />
        </mxCell>
        <mxCell id="3_Jl5_TaxesmlZ9jGOSC-18" value="" style="shape=partialRectangle;connectable=0;fillColor=none;top=0;left=0;bottom=0;right=0;editable=1;overflow=hidden;whiteSpace=wrap;html=1;" vertex="1" parent="3_Jl5_TaxesmlZ9jGOSC-17">
          <mxGeometry width="30" height="30" as="geometry">
            <mxRectangle width="30" height="30" as="alternateBounds" />
          </mxGeometry>
        </mxCell>
        <mxCell id="3_Jl5_TaxesmlZ9jGOSC-19" value="" style="shape=partialRectangle;connectable=0;fillColor=none;top=0;left=0;bottom=0;right=0;align=left;spacingLeft=6;overflow=hidden;whiteSpace=wrap;html=1;" vertex="1" parent="3_Jl5_TaxesmlZ9jGOSC-17">
          <mxGeometry x="30" width="150" height="30" as="geometry">
            <mxRectangle width="150" height="30" as="alternateBounds" />
          </mxGeometry>
        </mxCell>
        <mxCell id="3_Jl5_TaxesmlZ9jGOSC-20" value="" style="shape=tableRow;horizontal=0;startSize=0;swimlaneHead=0;swimlaneBody=0;fillColor=none;collapsible=0;dropTarget=0;points=[[0,0.5],[1,0.5]];portConstraint=eastwest;top=0;left=0;right=0;bottom=0;" vertex="1" parent="3_Jl5_TaxesmlZ9jGOSC-10">
          <mxGeometry y="120" width="180" height="30" as="geometry" />
        </mxCell>
        <mxCell id="3_Jl5_TaxesmlZ9jGOSC-21" value="" style="shape=partialRectangle;connectable=0;fillColor=none;top=0;left=0;bottom=0;right=0;editable=1;overflow=hidden;whiteSpace=wrap;html=1;" vertex="1" parent="3_Jl5_TaxesmlZ9jGOSC-20">
          <mxGeometry width="30" height="30" as="geometry">
            <mxRectangle width="30" height="30" as="alternateBounds" />
          </mxGeometry>
        </mxCell>
        <mxCell id="3_Jl5_TaxesmlZ9jGOSC-22" value="" style="shape=partialRectangle;connectable=0;fillColor=none;top=0;left=0;bottom=0;right=0;align=left;spacingLeft=6;overflow=hidden;whiteSpace=wrap;html=1;" vertex="1" parent="3_Jl5_TaxesmlZ9jGOSC-20">
          <mxGeometry x="30" width="150" height="30" as="geometry">
            <mxRectangle width="150" height="30" as="alternateBounds" />
          </mxGeometry>
        </mxCell>
        <mxCell id="3_Jl5_TaxesmlZ9jGOSC-23" value="이름" style="ellipse;whiteSpace=wrap;html=1;align=center;" vertex="1" parent="1">
          <mxGeometry y="500" width="100" height="40" as="geometry" />
        </mxCell>
        <mxCell id="3_Jl5_TaxesmlZ9jGOSC-24" value="&lt;u&gt;학번&lt;/u&gt;" style="ellipse;whiteSpace=wrap;html=1;align=center;" vertex="1" parent="1">
          <mxGeometry x="120" y="500" width="100" height="40" as="geometry" />
        </mxCell>
        <mxCell id="3_Jl5_TaxesmlZ9jGOSC-25" value="" style="endArrow=none;html=1;rounded=0;exitX=0.5;exitY=0;exitDx=0;exitDy=0;" edge="1" parent="1" source="3_Jl5_TaxesmlZ9jGOSC-23">
          <mxGeometry width="50" height="50" relative="1" as="geometry">
            <mxPoint x="60" y="510" as="sourcePoint" />
            <mxPoint x="110" y="460" as="targetPoint" />
          </mxGeometry>
        </mxCell>
        <mxCell id="3_Jl5_TaxesmlZ9jGOSC-26" value="" style="endArrow=none;html=1;rounded=0;exitX=0.5;exitY=0;exitDx=0;exitDy=0;entryX=0.5;entryY=1;entryDx=0;entryDy=0;" edge="1" parent="1" source="3_Jl5_TaxesmlZ9jGOSC-24" target="3_Jl5_TaxesmlZ9jGOSC-3">
          <mxGeometry width="50" height="50" relative="1" as="geometry">
            <mxPoint x="60" y="510" as="sourcePoint" />
            <mxPoint x="120" y="470" as="targetPoint" />
          </mxGeometry>
        </mxCell>
        <mxCell id="3_Jl5_TaxesmlZ9jGOSC-28" value="학생" style="shape=table;startSize=30;container=1;collapsible=1;childLayout=tableLayout;fixedRows=1;rowLines=0;fontStyle=1;align=center;resizeLast=1;html=1;" vertex="1" parent="1">
          <mxGeometry x="560" y="410" width="180" height="150" as="geometry" />
        </mxCell>
        <mxCell id="3_Jl5_TaxesmlZ9jGOSC-29" value="" style="shape=tableRow;horizontal=0;startSize=0;swimlaneHead=0;swimlaneBody=0;fillColor=none;collapsible=0;dropTarget=0;points=[[0,0.5],[1,0.5]];portConstraint=eastwest;top=0;left=0;right=0;bottom=1;" vertex="1" parent="3_Jl5_TaxesmlZ9jGOSC-28">
          <mxGeometry y="30" width="180" height="30" as="geometry" />
        </mxCell>
        <mxCell id="3_Jl5_TaxesmlZ9jGOSC-30" value="PK" style="shape=partialRectangle;connectable=0;fillColor=none;top=0;left=0;bottom=0;right=0;fontStyle=1;overflow=hidden;whiteSpace=wrap;html=1;" vertex="1" parent="3_Jl5_TaxesmlZ9jGOSC-29">
          <mxGeometry width="30" height="30" as="geometry">
            <mxRectangle width="30" height="30" as="alternateBounds" />
          </mxGeometry>
        </mxCell>
        <mxCell id="3_Jl5_TaxesmlZ9jGOSC-31" value="UniqueID" style="shape=partialRectangle;connectable=0;fillColor=none;top=0;left=0;bottom=0;right=0;align=left;spacingLeft=6;fontStyle=5;overflow=hidden;whiteSpace=wrap;html=1;" vertex="1" parent="3_Jl5_TaxesmlZ9jGOSC-29">
          <mxGeometry x="30" width="150" height="30" as="geometry">
            <mxRectangle width="150" height="30" as="alternateBounds" />
          </mxGeometry>
        </mxCell>
        <mxCell id="3_Jl5_TaxesmlZ9jGOSC-32" value="" style="shape=tableRow;horizontal=0;startSize=0;swimlaneHead=0;swimlaneBody=0;fillColor=none;collapsible=0;dropTarget=0;points=[[0,0.5],[1,0.5]];portConstraint=eastwest;top=0;left=0;right=0;bottom=0;" vertex="1" parent="3_Jl5_TaxesmlZ9jGOSC-28">
          <mxGeometry y="60" width="180" height="30" as="geometry" />
        </mxCell>
        <mxCell id="3_Jl5_TaxesmlZ9jGOSC-33" value="" style="shape=partialRectangle;connectable=0;fillColor=none;top=0;left=0;bottom=0;right=0;editable=1;overflow=hidden;whiteSpace=wrap;html=1;" vertex="1" parent="3_Jl5_TaxesmlZ9jGOSC-32">
          <mxGeometry width="30" height="30" as="geometry">
            <mxRectangle width="30" height="30" as="alternateBounds" />
          </mxGeometry>
        </mxCell>
        <mxCell id="3_Jl5_TaxesmlZ9jGOSC-34" value="이름" style="shape=partialRectangle;connectable=0;fillColor=none;top=0;left=0;bottom=0;right=0;align=left;spacingLeft=6;overflow=hidden;whiteSpace=wrap;html=1;" vertex="1" parent="3_Jl5_TaxesmlZ9jGOSC-32">
          <mxGeometry x="30" width="150" height="30" as="geometry">
            <mxRectangle width="150" height="30" as="alternateBounds" />
          </mxGeometry>
        </mxCell>
        <mxCell id="3_Jl5_TaxesmlZ9jGOSC-35" value="" style="shape=tableRow;horizontal=0;startSize=0;swimlaneHead=0;swimlaneBody=0;fillColor=none;collapsible=0;dropTarget=0;points=[[0,0.5],[1,0.5]];portConstraint=eastwest;top=0;left=0;right=0;bottom=0;" vertex="1" parent="3_Jl5_TaxesmlZ9jGOSC-28">
          <mxGeometry y="90" width="180" height="30" as="geometry" />
        </mxCell>
        <mxCell id="3_Jl5_TaxesmlZ9jGOSC-36" value="FK" style="shape=partialRectangle;connectable=0;fillColor=none;top=0;left=0;bottom=0;right=0;editable=1;overflow=hidden;whiteSpace=wrap;html=1;" vertex="1" parent="3_Jl5_TaxesmlZ9jGOSC-35">
          <mxGeometry width="30" height="30" as="geometry">
            <mxRectangle width="30" height="30" as="alternateBounds" />
          </mxGeometry>
        </mxCell>
        <mxCell id="3_Jl5_TaxesmlZ9jGOSC-37" value="학과코드" style="shape=partialRectangle;connectable=0;fillColor=none;top=0;left=0;bottom=0;right=0;align=left;spacingLeft=6;overflow=hidden;whiteSpace=wrap;html=1;" vertex="1" parent="3_Jl5_TaxesmlZ9jGOSC-35">
          <mxGeometry x="30" width="150" height="30" as="geometry">
            <mxRectangle width="150" height="30" as="alternateBounds" />
          </mxGeometry>
        </mxCell>
        <mxCell id="3_Jl5_TaxesmlZ9jGOSC-38" value="" style="shape=tableRow;horizontal=0;startSize=0;swimlaneHead=0;swimlaneBody=0;fillColor=none;collapsible=0;dropTarget=0;points=[[0,0.5],[1,0.5]];portConstraint=eastwest;top=0;left=0;right=0;bottom=0;" vertex="1" parent="3_Jl5_TaxesmlZ9jGOSC-28">
          <mxGeometry y="120" width="180" height="30" as="geometry" />
        </mxCell>
        <mxCell id="3_Jl5_TaxesmlZ9jGOSC-39" value="" style="shape=partialRectangle;connectable=0;fillColor=none;top=0;left=0;bottom=0;right=0;editable=1;overflow=hidden;whiteSpace=wrap;html=1;" vertex="1" parent="3_Jl5_TaxesmlZ9jGOSC-38">
          <mxGeometry width="30" height="30" as="geometry">
            <mxRectangle width="30" height="30" as="alternateBounds" />
          </mxGeometry>
        </mxCell>
        <mxCell id="3_Jl5_TaxesmlZ9jGOSC-40" value="" style="shape=partialRectangle;connectable=0;fillColor=none;top=0;left=0;bottom=0;right=0;align=left;spacingLeft=6;overflow=hidden;whiteSpace=wrap;html=1;" vertex="1" parent="3_Jl5_TaxesmlZ9jGOSC-38">
          <mxGeometry x="30" width="150" height="30" as="geometry">
            <mxRectangle width="150" height="30" as="alternateBounds" />
          </mxGeometry>
        </mxCell>
        <mxCell id="3_Jl5_TaxesmlZ9jGOSC-41" value="이진 1:N 관계 매핑: 관계(소속)를 학생(N)에서 학과(1)의 기본키를 외래키(FK)로 사용" style="text;html=1;align=center;verticalAlign=middle;resizable=0;points=[];autosize=1;strokeColor=none;fillColor=none;fontStyle=1" vertex="1" parent="1">
          <mxGeometry x="50" y="340" width="470" height="30" as="geometry" />
        </mxCell>
        <mxCell id="3_Jl5_TaxesmlZ9jGOSC-42" value="&lt;u&gt;학과코드&lt;/u&gt;" style="ellipse;whiteSpace=wrap;html=1;align=center;" vertex="1" parent="1">
          <mxGeometry x="306.5" y="500" width="100" height="40" as="geometry" />
        </mxCell>
        <mxCell id="3_Jl5_TaxesmlZ9jGOSC-43" value="학과명" style="ellipse;whiteSpace=wrap;html=1;align=center;" vertex="1" parent="1">
          <mxGeometry x="418.5" y="500" width="100" height="40" as="geometry" />
        </mxCell>
        <mxCell id="3_Jl5_TaxesmlZ9jGOSC-44" value="" style="endArrow=none;html=1;rounded=0;exitX=0.5;exitY=0;exitDx=0;exitDy=0;" edge="1" parent="1" source="3_Jl5_TaxesmlZ9jGOSC-42">
          <mxGeometry width="50" height="50" relative="1" as="geometry">
            <mxPoint x="354" y="500" as="sourcePoint" />
            <mxPoint x="414" y="460" as="targetPoint" />
          </mxGeometry>
        </mxCell>
        <mxCell id="3_Jl5_TaxesmlZ9jGOSC-45" value="" style="endArrow=none;html=1;rounded=0;exitX=0.5;exitY=0;exitDx=0;exitDy=0;entryX=0.5;entryY=1;entryDx=0;entryDy=0;" edge="1" parent="1" source="3_Jl5_TaxesmlZ9jGOSC-43" target="3_Jl5_TaxesmlZ9jGOSC-2">
          <mxGeometry width="50" height="50" relative="1" as="geometry">
            <mxPoint x="467" y="565" as="sourcePoint" />
            <mxPoint x="407" y="525" as="targetPoint" />
          </mxGeometry>
        </mxCell>
        <mxCell id="3_Jl5_TaxesmlZ9jGOSC-63" value="사용" style="shape=rhombus;perimeter=rhombusPerimeter;whiteSpace=wrap;html=1;align=center;" vertex="1" parent="1">
          <mxGeometry x="186.5" y="660" width="120" height="60" as="geometry" />
        </mxCell>
        <mxCell id="3_Jl5_TaxesmlZ9jGOSC-64" value="컴퓨터" style="whiteSpace=wrap;html=1;align=center;" vertex="1" parent="1">
          <mxGeometry x="346.5" y="670" width="100" height="40" as="geometry" />
        </mxCell>
        <mxCell id="3_Jl5_TaxesmlZ9jGOSC-65" value="학생" style="whiteSpace=wrap;html=1;align=center;" vertex="1" parent="1">
          <mxGeometry x="46.5" y="670" width="100" height="40" as="geometry" />
        </mxCell>
        <mxCell id="3_Jl5_TaxesmlZ9jGOSC-66" value="" style="endArrow=none;html=1;rounded=0;" edge="1" parent="1">
          <mxGeometry relative="1" as="geometry">
            <mxPoint x="306.5" y="689.5" as="sourcePoint" />
            <mxPoint x="346.5" y="690" as="targetPoint" />
          </mxGeometry>
        </mxCell>
        <mxCell id="3_Jl5_TaxesmlZ9jGOSC-67" value="1" style="resizable=0;html=1;whiteSpace=wrap;align=right;verticalAlign=bottom;" connectable="0" vertex="1" parent="3_Jl5_TaxesmlZ9jGOSC-66">
          <mxGeometry x="1" relative="1" as="geometry" />
        </mxCell>
        <mxCell id="3_Jl5_TaxesmlZ9jGOSC-70" value="&lt;u&gt;학번&lt;/u&gt;" style="ellipse;whiteSpace=wrap;html=1;align=center;" vertex="1" parent="1">
          <mxGeometry x="106.5" y="750" width="100" height="40" as="geometry" />
        </mxCell>
        <mxCell id="3_Jl5_TaxesmlZ9jGOSC-71" value="" style="endArrow=none;html=1;rounded=0;exitX=0.5;exitY=0;exitDx=0;exitDy=0;" edge="1" parent="1">
          <mxGeometry width="50" height="50" relative="1" as="geometry">
            <mxPoint x="36.5" y="750" as="sourcePoint" />
            <mxPoint x="96.5" y="710" as="targetPoint" />
          </mxGeometry>
        </mxCell>
        <mxCell id="3_Jl5_TaxesmlZ9jGOSC-72" value="" style="endArrow=none;html=1;rounded=0;exitX=0.5;exitY=0;exitDx=0;exitDy=0;entryX=0.5;entryY=1;entryDx=0;entryDy=0;" edge="1" parent="1" source="3_Jl5_TaxesmlZ9jGOSC-70" target="3_Jl5_TaxesmlZ9jGOSC-65">
          <mxGeometry width="50" height="50" relative="1" as="geometry">
            <mxPoint x="46.5" y="760" as="sourcePoint" />
            <mxPoint x="106.5" y="720" as="targetPoint" />
          </mxGeometry>
        </mxCell>
        <mxCell id="3_Jl5_TaxesmlZ9jGOSC-74" value="" style="shape=partialRectangle;connectable=0;fillColor=none;top=0;left=0;bottom=0;right=0;editable=1;overflow=hidden;whiteSpace=wrap;html=1;" vertex="1" parent="1">
          <mxGeometry x="453.5" y="710" width="30" height="30" as="geometry">
            <mxRectangle width="30" height="30" as="alternateBounds" />
          </mxGeometry>
        </mxCell>
        <mxCell id="3_Jl5_TaxesmlZ9jGOSC-76" value="" style="shape=partialRectangle;connectable=0;fillColor=none;top=0;left=0;bottom=0;right=0;editable=1;overflow=hidden;whiteSpace=wrap;html=1;" vertex="1" parent="1">
          <mxGeometry x="453.5" y="770" width="30" height="30" as="geometry">
            <mxRectangle width="30" height="30" as="alternateBounds" />
          </mxGeometry>
        </mxCell>
        <mxCell id="3_Jl5_TaxesmlZ9jGOSC-77" value="&lt;u&gt;컴퓨터번호&lt;/u&gt;" style="ellipse;whiteSpace=wrap;html=1;align=center;" vertex="1" parent="1">
          <mxGeometry x="284.75" y="750" width="100" height="40" as="geometry" />
        </mxCell>
        <mxCell id="3_Jl5_TaxesmlZ9jGOSC-78" value="" style="endArrow=none;html=1;rounded=0;exitX=0.5;exitY=0;exitDx=0;exitDy=0;" edge="1" parent="1" source="3_Jl5_TaxesmlZ9jGOSC-77">
          <mxGeometry width="50" height="50" relative="1" as="geometry">
            <mxPoint x="340.5" y="750" as="sourcePoint" />
            <mxPoint x="400.5" y="710" as="targetPoint" />
          </mxGeometry>
        </mxCell>
        <mxCell id="3_Jl5_TaxesmlZ9jGOSC-79" value="" style="endArrow=none;html=1;rounded=0;exitX=0.5;exitY=0;exitDx=0;exitDy=0;" edge="1" parent="1" source="3_Jl5_TaxesmlZ9jGOSC-80">
          <mxGeometry width="50" height="50" relative="1" as="geometry">
            <mxPoint x="453.5" y="815" as="sourcePoint" />
            <mxPoint x="400" y="710" as="targetPoint" />
          </mxGeometry>
        </mxCell>
        <mxCell id="3_Jl5_TaxesmlZ9jGOSC-80" value="사양" style="ellipse;whiteSpace=wrap;html=1;align=center;" vertex="1" parent="1">
          <mxGeometry x="408.25" y="750" width="100" height="40" as="geometry" />
        </mxCell>
        <mxCell id="3_Jl5_TaxesmlZ9jGOSC-81" value="이름" style="ellipse;whiteSpace=wrap;html=1;align=center;" vertex="1" parent="1">
          <mxGeometry x="-10" y="750" width="100" height="40" as="geometry" />
        </mxCell>
        <mxCell id="3_Jl5_TaxesmlZ9jGOSC-83" value="" style="endArrow=none;html=1;rounded=0;entryX=1;entryY=0.5;entryDx=0;entryDy=0;exitX=0;exitY=0.5;exitDx=0;exitDy=0;" edge="1" parent="1" source="3_Jl5_TaxesmlZ9jGOSC-63" target="3_Jl5_TaxesmlZ9jGOSC-65">
          <mxGeometry relative="1" as="geometry">
            <mxPoint x="150" y="650" as="sourcePoint" />
            <mxPoint x="190" y="650.5" as="targetPoint" />
          </mxGeometry>
        </mxCell>
        <mxCell id="3_Jl5_TaxesmlZ9jGOSC-84" value="1" style="resizable=0;html=1;whiteSpace=wrap;align=right;verticalAlign=bottom;" connectable="0" vertex="1" parent="3_Jl5_TaxesmlZ9jGOSC-83">
          <mxGeometry x="1" relative="1" as="geometry" />
        </mxCell>
        <mxCell id="3_Jl5_TaxesmlZ9jGOSC-85" value="컴퓨터" style="shape=table;startSize=30;container=1;collapsible=1;childLayout=tableLayout;fixedRows=1;rowLines=0;fontStyle=1;align=center;resizeLast=1;html=1;" vertex="1" parent="1">
          <mxGeometry x="760" y="665" width="180" height="150" as="geometry" />
        </mxCell>
        <mxCell id="3_Jl5_TaxesmlZ9jGOSC-86" value="" style="shape=tableRow;horizontal=0;startSize=0;swimlaneHead=0;swimlaneBody=0;fillColor=none;collapsible=0;dropTarget=0;points=[[0,0.5],[1,0.5]];portConstraint=eastwest;top=0;left=0;right=0;bottom=1;" vertex="1" parent="3_Jl5_TaxesmlZ9jGOSC-85">
          <mxGeometry y="30" width="180" height="30" as="geometry" />
        </mxCell>
        <mxCell id="3_Jl5_TaxesmlZ9jGOSC-87" value="PK" style="shape=partialRectangle;connectable=0;fillColor=none;top=0;left=0;bottom=0;right=0;fontStyle=1;overflow=hidden;whiteSpace=wrap;html=1;" vertex="1" parent="3_Jl5_TaxesmlZ9jGOSC-86">
          <mxGeometry width="30" height="30" as="geometry">
            <mxRectangle width="30" height="30" as="alternateBounds" />
          </mxGeometry>
        </mxCell>
        <mxCell id="3_Jl5_TaxesmlZ9jGOSC-88" value="컴퓨터번호" style="shape=partialRectangle;connectable=0;fillColor=none;top=0;left=0;bottom=0;right=0;align=left;spacingLeft=6;fontStyle=5;overflow=hidden;whiteSpace=wrap;html=1;" vertex="1" parent="3_Jl5_TaxesmlZ9jGOSC-86">
          <mxGeometry x="30" width="150" height="30" as="geometry">
            <mxRectangle width="150" height="30" as="alternateBounds" />
          </mxGeometry>
        </mxCell>
        <mxCell id="3_Jl5_TaxesmlZ9jGOSC-89" value="" style="shape=tableRow;horizontal=0;startSize=0;swimlaneHead=0;swimlaneBody=0;fillColor=none;collapsible=0;dropTarget=0;points=[[0,0.5],[1,0.5]];portConstraint=eastwest;top=0;left=0;right=0;bottom=0;" vertex="1" parent="3_Jl5_TaxesmlZ9jGOSC-85">
          <mxGeometry y="60" width="180" height="30" as="geometry" />
        </mxCell>
        <mxCell id="3_Jl5_TaxesmlZ9jGOSC-90" value="" style="shape=partialRectangle;connectable=0;fillColor=none;top=0;left=0;bottom=0;right=0;editable=1;overflow=hidden;whiteSpace=wrap;html=1;" vertex="1" parent="3_Jl5_TaxesmlZ9jGOSC-89">
          <mxGeometry width="30" height="30" as="geometry">
            <mxRectangle width="30" height="30" as="alternateBounds" />
          </mxGeometry>
        </mxCell>
        <mxCell id="3_Jl5_TaxesmlZ9jGOSC-91" value="사양" style="shape=partialRectangle;connectable=0;fillColor=none;top=0;left=0;bottom=0;right=0;align=left;spacingLeft=6;overflow=hidden;whiteSpace=wrap;html=1;" vertex="1" parent="3_Jl5_TaxesmlZ9jGOSC-89">
          <mxGeometry x="30" width="150" height="30" as="geometry">
            <mxRectangle width="150" height="30" as="alternateBounds" />
          </mxGeometry>
        </mxCell>
        <mxCell id="3_Jl5_TaxesmlZ9jGOSC-92" value="" style="shape=tableRow;horizontal=0;startSize=0;swimlaneHead=0;swimlaneBody=0;fillColor=none;collapsible=0;dropTarget=0;points=[[0,0.5],[1,0.5]];portConstraint=eastwest;top=0;left=0;right=0;bottom=0;" vertex="1" parent="3_Jl5_TaxesmlZ9jGOSC-85">
          <mxGeometry y="90" width="180" height="30" as="geometry" />
        </mxCell>
        <mxCell id="3_Jl5_TaxesmlZ9jGOSC-93" value="" style="shape=partialRectangle;connectable=0;fillColor=none;top=0;left=0;bottom=0;right=0;editable=1;overflow=hidden;whiteSpace=wrap;html=1;" vertex="1" parent="3_Jl5_TaxesmlZ9jGOSC-92">
          <mxGeometry width="30" height="30" as="geometry">
            <mxRectangle width="30" height="30" as="alternateBounds" />
          </mxGeometry>
        </mxCell>
        <mxCell id="3_Jl5_TaxesmlZ9jGOSC-94" value="" style="shape=partialRectangle;connectable=0;fillColor=none;top=0;left=0;bottom=0;right=0;align=left;spacingLeft=6;overflow=hidden;whiteSpace=wrap;html=1;" vertex="1" parent="3_Jl5_TaxesmlZ9jGOSC-92">
          <mxGeometry x="30" width="150" height="30" as="geometry">
            <mxRectangle width="150" height="30" as="alternateBounds" />
          </mxGeometry>
        </mxCell>
        <mxCell id="3_Jl5_TaxesmlZ9jGOSC-95" value="" style="shape=tableRow;horizontal=0;startSize=0;swimlaneHead=0;swimlaneBody=0;fillColor=none;collapsible=0;dropTarget=0;points=[[0,0.5],[1,0.5]];portConstraint=eastwest;top=0;left=0;right=0;bottom=0;" vertex="1" parent="3_Jl5_TaxesmlZ9jGOSC-85">
          <mxGeometry y="120" width="180" height="30" as="geometry" />
        </mxCell>
        <mxCell id="3_Jl5_TaxesmlZ9jGOSC-96" value="" style="shape=partialRectangle;connectable=0;fillColor=none;top=0;left=0;bottom=0;right=0;editable=1;overflow=hidden;whiteSpace=wrap;html=1;" vertex="1" parent="3_Jl5_TaxesmlZ9jGOSC-95">
          <mxGeometry width="30" height="30" as="geometry">
            <mxRectangle width="30" height="30" as="alternateBounds" />
          </mxGeometry>
        </mxCell>
        <mxCell id="3_Jl5_TaxesmlZ9jGOSC-97" value="" style="shape=partialRectangle;connectable=0;fillColor=none;top=0;left=0;bottom=0;right=0;align=left;spacingLeft=6;overflow=hidden;whiteSpace=wrap;html=1;" vertex="1" parent="3_Jl5_TaxesmlZ9jGOSC-95">
          <mxGeometry x="30" width="150" height="30" as="geometry">
            <mxRectangle width="150" height="30" as="alternateBounds" />
          </mxGeometry>
        </mxCell>
        <mxCell id="3_Jl5_TaxesmlZ9jGOSC-98" value="학생" style="shape=table;startSize=30;container=1;collapsible=1;childLayout=tableLayout;fixedRows=1;rowLines=0;fontStyle=1;align=center;resizeLast=1;html=1;" vertex="1" parent="1">
          <mxGeometry x="560" y="665" width="180" height="150" as="geometry" />
        </mxCell>
        <mxCell id="3_Jl5_TaxesmlZ9jGOSC-99" value="" style="shape=tableRow;horizontal=0;startSize=0;swimlaneHead=0;swimlaneBody=0;fillColor=none;collapsible=0;dropTarget=0;points=[[0,0.5],[1,0.5]];portConstraint=eastwest;top=0;left=0;right=0;bottom=1;" vertex="1" parent="3_Jl5_TaxesmlZ9jGOSC-98">
          <mxGeometry y="30" width="180" height="30" as="geometry" />
        </mxCell>
        <mxCell id="3_Jl5_TaxesmlZ9jGOSC-100" value="PK" style="shape=partialRectangle;connectable=0;fillColor=none;top=0;left=0;bottom=0;right=0;fontStyle=1;overflow=hidden;whiteSpace=wrap;html=1;" vertex="1" parent="3_Jl5_TaxesmlZ9jGOSC-99">
          <mxGeometry width="30" height="30" as="geometry">
            <mxRectangle width="30" height="30" as="alternateBounds" />
          </mxGeometry>
        </mxCell>
        <mxCell id="3_Jl5_TaxesmlZ9jGOSC-101" value="학번" style="shape=partialRectangle;connectable=0;fillColor=none;top=0;left=0;bottom=0;right=0;align=left;spacingLeft=6;fontStyle=5;overflow=hidden;whiteSpace=wrap;html=1;" vertex="1" parent="3_Jl5_TaxesmlZ9jGOSC-99">
          <mxGeometry x="30" width="150" height="30" as="geometry">
            <mxRectangle width="150" height="30" as="alternateBounds" />
          </mxGeometry>
        </mxCell>
        <mxCell id="3_Jl5_TaxesmlZ9jGOSC-102" value="" style="shape=tableRow;horizontal=0;startSize=0;swimlaneHead=0;swimlaneBody=0;fillColor=none;collapsible=0;dropTarget=0;points=[[0,0.5],[1,0.5]];portConstraint=eastwest;top=0;left=0;right=0;bottom=0;" vertex="1" parent="3_Jl5_TaxesmlZ9jGOSC-98">
          <mxGeometry y="60" width="180" height="30" as="geometry" />
        </mxCell>
        <mxCell id="3_Jl5_TaxesmlZ9jGOSC-103" value="" style="shape=partialRectangle;connectable=0;fillColor=none;top=0;left=0;bottom=0;right=0;editable=1;overflow=hidden;whiteSpace=wrap;html=1;" vertex="1" parent="3_Jl5_TaxesmlZ9jGOSC-102">
          <mxGeometry width="30" height="30" as="geometry">
            <mxRectangle width="30" height="30" as="alternateBounds" />
          </mxGeometry>
        </mxCell>
        <mxCell id="3_Jl5_TaxesmlZ9jGOSC-104" value="이름" style="shape=partialRectangle;connectable=0;fillColor=none;top=0;left=0;bottom=0;right=0;align=left;spacingLeft=6;overflow=hidden;whiteSpace=wrap;html=1;" vertex="1" parent="3_Jl5_TaxesmlZ9jGOSC-102">
          <mxGeometry x="30" width="150" height="30" as="geometry">
            <mxRectangle width="150" height="30" as="alternateBounds" />
          </mxGeometry>
        </mxCell>
        <mxCell id="3_Jl5_TaxesmlZ9jGOSC-105" value="" style="shape=tableRow;horizontal=0;startSize=0;swimlaneHead=0;swimlaneBody=0;fillColor=none;collapsible=0;dropTarget=0;points=[[0,0.5],[1,0.5]];portConstraint=eastwest;top=0;left=0;right=0;bottom=0;" vertex="1" parent="3_Jl5_TaxesmlZ9jGOSC-98">
          <mxGeometry y="90" width="180" height="30" as="geometry" />
        </mxCell>
        <mxCell id="3_Jl5_TaxesmlZ9jGOSC-106" value="FK" style="shape=partialRectangle;connectable=0;fillColor=none;top=0;left=0;bottom=0;right=0;editable=1;overflow=hidden;whiteSpace=wrap;html=1;" vertex="1" parent="3_Jl5_TaxesmlZ9jGOSC-105">
          <mxGeometry width="30" height="30" as="geometry">
            <mxRectangle width="30" height="30" as="alternateBounds" />
          </mxGeometry>
        </mxCell>
        <mxCell id="3_Jl5_TaxesmlZ9jGOSC-107" value="컴퓨터번호" style="shape=partialRectangle;connectable=0;fillColor=none;top=0;left=0;bottom=0;right=0;align=left;spacingLeft=6;overflow=hidden;whiteSpace=wrap;html=1;" vertex="1" parent="3_Jl5_TaxesmlZ9jGOSC-105">
          <mxGeometry x="30" width="150" height="30" as="geometry">
            <mxRectangle width="150" height="30" as="alternateBounds" />
          </mxGeometry>
        </mxCell>
        <mxCell id="3_Jl5_TaxesmlZ9jGOSC-108" value="" style="shape=tableRow;horizontal=0;startSize=0;swimlaneHead=0;swimlaneBody=0;fillColor=none;collapsible=0;dropTarget=0;points=[[0,0.5],[1,0.5]];portConstraint=eastwest;top=0;left=0;right=0;bottom=0;" vertex="1" parent="3_Jl5_TaxesmlZ9jGOSC-98">
          <mxGeometry y="120" width="180" height="30" as="geometry" />
        </mxCell>
        <mxCell id="3_Jl5_TaxesmlZ9jGOSC-109" value="" style="shape=partialRectangle;connectable=0;fillColor=none;top=0;left=0;bottom=0;right=0;editable=1;overflow=hidden;whiteSpace=wrap;html=1;" vertex="1" parent="3_Jl5_TaxesmlZ9jGOSC-108">
          <mxGeometry width="30" height="30" as="geometry">
            <mxRectangle width="30" height="30" as="alternateBounds" />
          </mxGeometry>
        </mxCell>
        <mxCell id="3_Jl5_TaxesmlZ9jGOSC-110" value="" style="shape=partialRectangle;connectable=0;fillColor=none;top=0;left=0;bottom=0;right=0;align=left;spacingLeft=6;overflow=hidden;whiteSpace=wrap;html=1;" vertex="1" parent="3_Jl5_TaxesmlZ9jGOSC-108">
          <mxGeometry x="30" width="150" height="30" as="geometry">
            <mxRectangle width="150" height="30" as="alternateBounds" />
          </mxGeometry>
        </mxCell>
        <mxCell id="3_Jl5_TaxesmlZ9jGOSC-111" value="컴퓨터" style="shape=table;startSize=30;container=1;collapsible=1;childLayout=tableLayout;fixedRows=1;rowLines=0;fontStyle=1;align=center;resizeLast=1;html=1;" vertex="1" parent="1">
          <mxGeometry x="760" y="870" width="180" height="150" as="geometry" />
        </mxCell>
        <mxCell id="3_Jl5_TaxesmlZ9jGOSC-112" value="" style="shape=tableRow;horizontal=0;startSize=0;swimlaneHead=0;swimlaneBody=0;fillColor=none;collapsible=0;dropTarget=0;points=[[0,0.5],[1,0.5]];portConstraint=eastwest;top=0;left=0;right=0;bottom=1;" vertex="1" parent="3_Jl5_TaxesmlZ9jGOSC-111">
          <mxGeometry y="30" width="180" height="30" as="geometry" />
        </mxCell>
        <mxCell id="3_Jl5_TaxesmlZ9jGOSC-113" value="PK" style="shape=partialRectangle;connectable=0;fillColor=none;top=0;left=0;bottom=0;right=0;fontStyle=1;overflow=hidden;whiteSpace=wrap;html=1;" vertex="1" parent="3_Jl5_TaxesmlZ9jGOSC-112">
          <mxGeometry width="30" height="30" as="geometry">
            <mxRectangle width="30" height="30" as="alternateBounds" />
          </mxGeometry>
        </mxCell>
        <mxCell id="3_Jl5_TaxesmlZ9jGOSC-114" value="컴퓨터번호" style="shape=partialRectangle;connectable=0;fillColor=none;top=0;left=0;bottom=0;right=0;align=left;spacingLeft=6;fontStyle=5;overflow=hidden;whiteSpace=wrap;html=1;" vertex="1" parent="3_Jl5_TaxesmlZ9jGOSC-112">
          <mxGeometry x="30" width="150" height="30" as="geometry">
            <mxRectangle width="150" height="30" as="alternateBounds" />
          </mxGeometry>
        </mxCell>
        <mxCell id="3_Jl5_TaxesmlZ9jGOSC-115" value="" style="shape=tableRow;horizontal=0;startSize=0;swimlaneHead=0;swimlaneBody=0;fillColor=none;collapsible=0;dropTarget=0;points=[[0,0.5],[1,0.5]];portConstraint=eastwest;top=0;left=0;right=0;bottom=0;" vertex="1" parent="3_Jl5_TaxesmlZ9jGOSC-111">
          <mxGeometry y="60" width="180" height="30" as="geometry" />
        </mxCell>
        <mxCell id="3_Jl5_TaxesmlZ9jGOSC-116" value="" style="shape=partialRectangle;connectable=0;fillColor=none;top=0;left=0;bottom=0;right=0;editable=1;overflow=hidden;whiteSpace=wrap;html=1;" vertex="1" parent="3_Jl5_TaxesmlZ9jGOSC-115">
          <mxGeometry width="30" height="30" as="geometry">
            <mxRectangle width="30" height="30" as="alternateBounds" />
          </mxGeometry>
        </mxCell>
        <mxCell id="3_Jl5_TaxesmlZ9jGOSC-117" value="사양" style="shape=partialRectangle;connectable=0;fillColor=none;top=0;left=0;bottom=0;right=0;align=left;spacingLeft=6;overflow=hidden;whiteSpace=wrap;html=1;" vertex="1" parent="3_Jl5_TaxesmlZ9jGOSC-115">
          <mxGeometry x="30" width="150" height="30" as="geometry">
            <mxRectangle width="150" height="30" as="alternateBounds" />
          </mxGeometry>
        </mxCell>
        <mxCell id="3_Jl5_TaxesmlZ9jGOSC-118" value="" style="shape=tableRow;horizontal=0;startSize=0;swimlaneHead=0;swimlaneBody=0;fillColor=none;collapsible=0;dropTarget=0;points=[[0,0.5],[1,0.5]];portConstraint=eastwest;top=0;left=0;right=0;bottom=0;" vertex="1" parent="3_Jl5_TaxesmlZ9jGOSC-111">
          <mxGeometry y="90" width="180" height="30" as="geometry" />
        </mxCell>
        <mxCell id="3_Jl5_TaxesmlZ9jGOSC-119" value="" style="shape=partialRectangle;connectable=0;fillColor=none;top=0;left=0;bottom=0;right=0;editable=1;overflow=hidden;whiteSpace=wrap;html=1;" vertex="1" parent="3_Jl5_TaxesmlZ9jGOSC-118">
          <mxGeometry width="30" height="30" as="geometry">
            <mxRectangle width="30" height="30" as="alternateBounds" />
          </mxGeometry>
        </mxCell>
        <mxCell id="3_Jl5_TaxesmlZ9jGOSC-120" value="" style="shape=partialRectangle;connectable=0;fillColor=none;top=0;left=0;bottom=0;right=0;align=left;spacingLeft=6;overflow=hidden;whiteSpace=wrap;html=1;" vertex="1" parent="3_Jl5_TaxesmlZ9jGOSC-118">
          <mxGeometry x="30" width="150" height="30" as="geometry">
            <mxRectangle width="150" height="30" as="alternateBounds" />
          </mxGeometry>
        </mxCell>
        <mxCell id="3_Jl5_TaxesmlZ9jGOSC-121" value="" style="shape=tableRow;horizontal=0;startSize=0;swimlaneHead=0;swimlaneBody=0;fillColor=none;collapsible=0;dropTarget=0;points=[[0,0.5],[1,0.5]];portConstraint=eastwest;top=0;left=0;right=0;bottom=0;" vertex="1" parent="3_Jl5_TaxesmlZ9jGOSC-111">
          <mxGeometry y="120" width="180" height="30" as="geometry" />
        </mxCell>
        <mxCell id="3_Jl5_TaxesmlZ9jGOSC-122" value="" style="shape=partialRectangle;connectable=0;fillColor=none;top=0;left=0;bottom=0;right=0;editable=1;overflow=hidden;whiteSpace=wrap;html=1;" vertex="1" parent="3_Jl5_TaxesmlZ9jGOSC-121">
          <mxGeometry width="30" height="30" as="geometry">
            <mxRectangle width="30" height="30" as="alternateBounds" />
          </mxGeometry>
        </mxCell>
        <mxCell id="3_Jl5_TaxesmlZ9jGOSC-123" value="" style="shape=partialRectangle;connectable=0;fillColor=none;top=0;left=0;bottom=0;right=0;align=left;spacingLeft=6;overflow=hidden;whiteSpace=wrap;html=1;" vertex="1" parent="3_Jl5_TaxesmlZ9jGOSC-121">
          <mxGeometry x="30" width="150" height="30" as="geometry">
            <mxRectangle width="150" height="30" as="alternateBounds" />
          </mxGeometry>
        </mxCell>
        <mxCell id="3_Jl5_TaxesmlZ9jGOSC-124" value="학생" style="shape=table;startSize=30;container=1;collapsible=1;childLayout=tableLayout;fixedRows=1;rowLines=0;fontStyle=1;align=center;resizeLast=1;html=1;" vertex="1" parent="1">
          <mxGeometry x="560" y="870" width="180" height="150" as="geometry" />
        </mxCell>
        <mxCell id="3_Jl5_TaxesmlZ9jGOSC-125" value="" style="shape=tableRow;horizontal=0;startSize=0;swimlaneHead=0;swimlaneBody=0;fillColor=none;collapsible=0;dropTarget=0;points=[[0,0.5],[1,0.5]];portConstraint=eastwest;top=0;left=0;right=0;bottom=1;" vertex="1" parent="3_Jl5_TaxesmlZ9jGOSC-124">
          <mxGeometry y="30" width="180" height="30" as="geometry" />
        </mxCell>
        <mxCell id="3_Jl5_TaxesmlZ9jGOSC-126" value="PK" style="shape=partialRectangle;connectable=0;fillColor=none;top=0;left=0;bottom=0;right=0;fontStyle=1;overflow=hidden;whiteSpace=wrap;html=1;" vertex="1" parent="3_Jl5_TaxesmlZ9jGOSC-125">
          <mxGeometry width="30" height="30" as="geometry">
            <mxRectangle width="30" height="30" as="alternateBounds" />
          </mxGeometry>
        </mxCell>
        <mxCell id="3_Jl5_TaxesmlZ9jGOSC-127" value="학번" style="shape=partialRectangle;connectable=0;fillColor=none;top=0;left=0;bottom=0;right=0;align=left;spacingLeft=6;fontStyle=5;overflow=hidden;whiteSpace=wrap;html=1;" vertex="1" parent="3_Jl5_TaxesmlZ9jGOSC-125">
          <mxGeometry x="30" width="150" height="30" as="geometry">
            <mxRectangle width="150" height="30" as="alternateBounds" />
          </mxGeometry>
        </mxCell>
        <mxCell id="3_Jl5_TaxesmlZ9jGOSC-128" value="" style="shape=tableRow;horizontal=0;startSize=0;swimlaneHead=0;swimlaneBody=0;fillColor=none;collapsible=0;dropTarget=0;points=[[0,0.5],[1,0.5]];portConstraint=eastwest;top=0;left=0;right=0;bottom=0;" vertex="1" parent="3_Jl5_TaxesmlZ9jGOSC-124">
          <mxGeometry y="60" width="180" height="30" as="geometry" />
        </mxCell>
        <mxCell id="3_Jl5_TaxesmlZ9jGOSC-129" value="" style="shape=partialRectangle;connectable=0;fillColor=none;top=0;left=0;bottom=0;right=0;editable=1;overflow=hidden;whiteSpace=wrap;html=1;" vertex="1" parent="3_Jl5_TaxesmlZ9jGOSC-128">
          <mxGeometry width="30" height="30" as="geometry">
            <mxRectangle width="30" height="30" as="alternateBounds" />
          </mxGeometry>
        </mxCell>
        <mxCell id="3_Jl5_TaxesmlZ9jGOSC-130" value="이름" style="shape=partialRectangle;connectable=0;fillColor=none;top=0;left=0;bottom=0;right=0;align=left;spacingLeft=6;overflow=hidden;whiteSpace=wrap;html=1;" vertex="1" parent="3_Jl5_TaxesmlZ9jGOSC-128">
          <mxGeometry x="30" width="150" height="30" as="geometry">
            <mxRectangle width="150" height="30" as="alternateBounds" />
          </mxGeometry>
        </mxCell>
        <mxCell id="3_Jl5_TaxesmlZ9jGOSC-131" value="" style="shape=tableRow;horizontal=0;startSize=0;swimlaneHead=0;swimlaneBody=0;fillColor=none;collapsible=0;dropTarget=0;points=[[0,0.5],[1,0.5]];portConstraint=eastwest;top=0;left=0;right=0;bottom=0;" vertex="1" parent="3_Jl5_TaxesmlZ9jGOSC-124">
          <mxGeometry y="90" width="180" height="30" as="geometry" />
        </mxCell>
        <mxCell id="3_Jl5_TaxesmlZ9jGOSC-132" value="" style="shape=partialRectangle;connectable=0;fillColor=none;top=0;left=0;bottom=0;right=0;editable=1;overflow=hidden;whiteSpace=wrap;html=1;" vertex="1" parent="3_Jl5_TaxesmlZ9jGOSC-131">
          <mxGeometry width="30" height="30" as="geometry">
            <mxRectangle width="30" height="30" as="alternateBounds" />
          </mxGeometry>
        </mxCell>
        <mxCell id="3_Jl5_TaxesmlZ9jGOSC-133" value="" style="shape=partialRectangle;connectable=0;fillColor=none;top=0;left=0;bottom=0;right=0;align=left;spacingLeft=6;overflow=hidden;whiteSpace=wrap;html=1;" vertex="1" parent="3_Jl5_TaxesmlZ9jGOSC-131">
          <mxGeometry x="30" width="150" height="30" as="geometry">
            <mxRectangle width="150" height="30" as="alternateBounds" />
          </mxGeometry>
        </mxCell>
        <mxCell id="3_Jl5_TaxesmlZ9jGOSC-134" value="" style="shape=tableRow;horizontal=0;startSize=0;swimlaneHead=0;swimlaneBody=0;fillColor=none;collapsible=0;dropTarget=0;points=[[0,0.5],[1,0.5]];portConstraint=eastwest;top=0;left=0;right=0;bottom=0;" vertex="1" parent="3_Jl5_TaxesmlZ9jGOSC-124">
          <mxGeometry y="120" width="180" height="30" as="geometry" />
        </mxCell>
        <mxCell id="3_Jl5_TaxesmlZ9jGOSC-135" value="" style="shape=partialRectangle;connectable=0;fillColor=none;top=0;left=0;bottom=0;right=0;editable=1;overflow=hidden;whiteSpace=wrap;html=1;" vertex="1" parent="3_Jl5_TaxesmlZ9jGOSC-134">
          <mxGeometry width="30" height="30" as="geometry">
            <mxRectangle width="30" height="30" as="alternateBounds" />
          </mxGeometry>
        </mxCell>
        <mxCell id="3_Jl5_TaxesmlZ9jGOSC-136" value="" style="shape=partialRectangle;connectable=0;fillColor=none;top=0;left=0;bottom=0;right=0;align=left;spacingLeft=6;overflow=hidden;whiteSpace=wrap;html=1;" vertex="1" parent="3_Jl5_TaxesmlZ9jGOSC-134">
          <mxGeometry x="30" width="150" height="30" as="geometry">
            <mxRectangle width="150" height="30" as="alternateBounds" />
          </mxGeometry>
        </mxCell>
        <mxCell id="3_Jl5_TaxesmlZ9jGOSC-137" value="이진 1:1 관계: 왼쪽 또는 오른쪽에&amp;nbsp; 외래키를 두는 방법 모두 매핑가능" style="text;html=1;align=center;verticalAlign=middle;resizable=0;points=[];autosize=1;strokeColor=none;fillColor=none;fontStyle=1" vertex="1" parent="1">
          <mxGeometry x="60" y="620" width="390" height="30" as="geometry" />
        </mxCell>
        <mxCell id="3_Jl5_TaxesmlZ9jGOSC-138" value="OR" style="text;html=1;align=center;verticalAlign=middle;resizable=0;points=[];autosize=1;strokeColor=none;fillColor=none;fontStyle=1" vertex="1" parent="1">
          <mxGeometry x="720" y="828" width="40" height="30" as="geometry" />
        </mxCell>
        <mxCell id="3_Jl5_TaxesmlZ9jGOSC-139" value="1) 오른쪽 개체 기준으로 외래키 참조&lt;div&gt;2) 왼쪽 개체 기준으로 외래키 참조&lt;/div&gt;&lt;div&gt;3) 단일 릴레이션(테이블) 통합&lt;/div&gt;&lt;div style=&quot;&quot;&gt;4) 오른쪽, 왼쪽, 관계 모두 테이블로 표현&lt;/div&gt;&lt;div style=&quot;&quot;&gt;&lt;br&gt;&lt;/div&gt;&lt;div style=&quot;&quot;&gt;모든 방법이 사용 가능하지만,&amp;nbsp;&lt;/div&gt;&lt;div style=&quot;&quot;&gt;일반적으로 튜플 수가 많은 쪽에 외래키를 둔다&lt;/div&gt;" style="text;html=1;align=left;verticalAlign=middle;resizable=0;points=[];autosize=1;strokeColor=none;fillColor=none;fontStyle=1" vertex="1" parent="1">
          <mxGeometry x="100" y="880" width="270" height="110" as="geometry" />
        </mxCell>
        <mxCell id="3_Jl5_TaxesmlZ9jGOSC-140" value="수업" style="shape=rhombus;perimeter=rhombusPerimeter;whiteSpace=wrap;html=1;align=center;" vertex="1" parent="1">
          <mxGeometry x="196.25" y="1090" width="120" height="60" as="geometry" />
        </mxCell>
        <mxCell id="3_Jl5_TaxesmlZ9jGOSC-141" value="과목" style="whiteSpace=wrap;html=1;align=center;" vertex="1" parent="1">
          <mxGeometry x="356.25" y="1100" width="100" height="40" as="geometry" />
        </mxCell>
        <mxCell id="3_Jl5_TaxesmlZ9jGOSC-142" value="교수" style="whiteSpace=wrap;html=1;align=center;" vertex="1" parent="1">
          <mxGeometry x="56.25" y="1100" width="100" height="40" as="geometry" />
        </mxCell>
        <mxCell id="3_Jl5_TaxesmlZ9jGOSC-145" value="&lt;u&gt;사번&lt;/u&gt;" style="ellipse;whiteSpace=wrap;html=1;align=center;" vertex="1" parent="1">
          <mxGeometry x="116.25" y="1180" width="100" height="40" as="geometry" />
        </mxCell>
        <mxCell id="3_Jl5_TaxesmlZ9jGOSC-146" value="" style="endArrow=none;html=1;rounded=0;exitX=0.5;exitY=0;exitDx=0;exitDy=0;" edge="1" parent="1">
          <mxGeometry width="50" height="50" relative="1" as="geometry">
            <mxPoint x="46.25" y="1180" as="sourcePoint" />
            <mxPoint x="106.25" y="1140" as="targetPoint" />
          </mxGeometry>
        </mxCell>
        <mxCell id="3_Jl5_TaxesmlZ9jGOSC-147" value="" style="endArrow=none;html=1;rounded=0;exitX=0.5;exitY=0;exitDx=0;exitDy=0;entryX=0.5;entryY=1;entryDx=0;entryDy=0;" edge="1" parent="1" source="3_Jl5_TaxesmlZ9jGOSC-145" target="3_Jl5_TaxesmlZ9jGOSC-142">
          <mxGeometry width="50" height="50" relative="1" as="geometry">
            <mxPoint x="56.25" y="1190" as="sourcePoint" />
            <mxPoint x="116.25" y="1150" as="targetPoint" />
          </mxGeometry>
        </mxCell>
        <mxCell id="3_Jl5_TaxesmlZ9jGOSC-148" value="" style="shape=partialRectangle;connectable=0;fillColor=none;top=0;left=0;bottom=0;right=0;editable=1;overflow=hidden;whiteSpace=wrap;html=1;" vertex="1" parent="1">
          <mxGeometry x="463.25" y="1140" width="30" height="30" as="geometry">
            <mxRectangle width="30" height="30" as="alternateBounds" />
          </mxGeometry>
        </mxCell>
        <mxCell id="3_Jl5_TaxesmlZ9jGOSC-149" value="" style="shape=partialRectangle;connectable=0;fillColor=none;top=0;left=0;bottom=0;right=0;editable=1;overflow=hidden;whiteSpace=wrap;html=1;" vertex="1" parent="1">
          <mxGeometry x="463.25" y="1200" width="30" height="30" as="geometry">
            <mxRectangle width="30" height="30" as="alternateBounds" />
          </mxGeometry>
        </mxCell>
        <mxCell id="3_Jl5_TaxesmlZ9jGOSC-150" value="&lt;u&gt;과목코드&lt;/u&gt;" style="ellipse;whiteSpace=wrap;html=1;align=center;" vertex="1" parent="1">
          <mxGeometry x="297.38" y="1180" width="100" height="40" as="geometry" />
        </mxCell>
        <mxCell id="3_Jl5_TaxesmlZ9jGOSC-151" value="" style="endArrow=none;html=1;rounded=0;exitX=0.5;exitY=0;exitDx=0;exitDy=0;" edge="1" parent="1" source="3_Jl5_TaxesmlZ9jGOSC-150">
          <mxGeometry width="50" height="50" relative="1" as="geometry">
            <mxPoint x="350.25" y="1180" as="sourcePoint" />
            <mxPoint x="410.25" y="1140" as="targetPoint" />
          </mxGeometry>
        </mxCell>
        <mxCell id="3_Jl5_TaxesmlZ9jGOSC-152" value="" style="endArrow=none;html=1;rounded=0;exitX=0.5;exitY=0;exitDx=0;exitDy=0;entryX=0.5;entryY=1;entryDx=0;entryDy=0;" edge="1" parent="1" target="3_Jl5_TaxesmlZ9jGOSC-141" source="3_Jl5_TaxesmlZ9jGOSC-153">
          <mxGeometry width="50" height="50" relative="1" as="geometry">
            <mxPoint x="463.25" y="1245" as="sourcePoint" />
            <mxPoint x="412" y="1144" as="targetPoint" />
          </mxGeometry>
        </mxCell>
        <mxCell id="3_Jl5_TaxesmlZ9jGOSC-153" value="과목명" style="ellipse;whiteSpace=wrap;html=1;align=center;" vertex="1" parent="1">
          <mxGeometry x="415.13" y="1180" width="100" height="40" as="geometry" />
        </mxCell>
        <mxCell id="3_Jl5_TaxesmlZ9jGOSC-154" value="이름" style="ellipse;whiteSpace=wrap;html=1;align=center;" vertex="1" parent="1">
          <mxGeometry x="-0.25" y="1180" width="100" height="40" as="geometry" />
        </mxCell>
        <mxCell id="3_Jl5_TaxesmlZ9jGOSC-158" value="교수" style="shape=table;startSize=30;container=1;collapsible=1;childLayout=tableLayout;fixedRows=1;rowLines=0;fontStyle=1;align=center;resizeLast=1;html=1;" vertex="1" parent="1">
          <mxGeometry x="560" y="1095" width="180" height="150" as="geometry" />
        </mxCell>
        <mxCell id="3_Jl5_TaxesmlZ9jGOSC-159" value="" style="shape=tableRow;horizontal=0;startSize=0;swimlaneHead=0;swimlaneBody=0;fillColor=none;collapsible=0;dropTarget=0;points=[[0,0.5],[1,0.5]];portConstraint=eastwest;top=0;left=0;right=0;bottom=1;" vertex="1" parent="3_Jl5_TaxesmlZ9jGOSC-158">
          <mxGeometry y="30" width="180" height="30" as="geometry" />
        </mxCell>
        <mxCell id="3_Jl5_TaxesmlZ9jGOSC-160" value="PK" style="shape=partialRectangle;connectable=0;fillColor=none;top=0;left=0;bottom=0;right=0;fontStyle=1;overflow=hidden;whiteSpace=wrap;html=1;" vertex="1" parent="3_Jl5_TaxesmlZ9jGOSC-159">
          <mxGeometry width="30" height="30" as="geometry">
            <mxRectangle width="30" height="30" as="alternateBounds" />
          </mxGeometry>
        </mxCell>
        <mxCell id="3_Jl5_TaxesmlZ9jGOSC-161" value="사번" style="shape=partialRectangle;connectable=0;fillColor=none;top=0;left=0;bottom=0;right=0;align=left;spacingLeft=6;fontStyle=5;overflow=hidden;whiteSpace=wrap;html=1;" vertex="1" parent="3_Jl5_TaxesmlZ9jGOSC-159">
          <mxGeometry x="30" width="150" height="30" as="geometry">
            <mxRectangle width="150" height="30" as="alternateBounds" />
          </mxGeometry>
        </mxCell>
        <mxCell id="3_Jl5_TaxesmlZ9jGOSC-162" value="" style="shape=tableRow;horizontal=0;startSize=0;swimlaneHead=0;swimlaneBody=0;fillColor=none;collapsible=0;dropTarget=0;points=[[0,0.5],[1,0.5]];portConstraint=eastwest;top=0;left=0;right=0;bottom=0;" vertex="1" parent="3_Jl5_TaxesmlZ9jGOSC-158">
          <mxGeometry y="60" width="180" height="30" as="geometry" />
        </mxCell>
        <mxCell id="3_Jl5_TaxesmlZ9jGOSC-163" value="" style="shape=partialRectangle;connectable=0;fillColor=none;top=0;left=0;bottom=0;right=0;editable=1;overflow=hidden;whiteSpace=wrap;html=1;" vertex="1" parent="3_Jl5_TaxesmlZ9jGOSC-162">
          <mxGeometry width="30" height="30" as="geometry">
            <mxRectangle width="30" height="30" as="alternateBounds" />
          </mxGeometry>
        </mxCell>
        <mxCell id="3_Jl5_TaxesmlZ9jGOSC-164" value="이름" style="shape=partialRectangle;connectable=0;fillColor=none;top=0;left=0;bottom=0;right=0;align=left;spacingLeft=6;overflow=hidden;whiteSpace=wrap;html=1;" vertex="1" parent="3_Jl5_TaxesmlZ9jGOSC-162">
          <mxGeometry x="30" width="150" height="30" as="geometry">
            <mxRectangle width="150" height="30" as="alternateBounds" />
          </mxGeometry>
        </mxCell>
        <mxCell id="3_Jl5_TaxesmlZ9jGOSC-165" value="" style="shape=tableRow;horizontal=0;startSize=0;swimlaneHead=0;swimlaneBody=0;fillColor=none;collapsible=0;dropTarget=0;points=[[0,0.5],[1,0.5]];portConstraint=eastwest;top=0;left=0;right=0;bottom=0;" vertex="1" parent="3_Jl5_TaxesmlZ9jGOSC-158">
          <mxGeometry y="90" width="180" height="30" as="geometry" />
        </mxCell>
        <mxCell id="3_Jl5_TaxesmlZ9jGOSC-166" value="" style="shape=partialRectangle;connectable=0;fillColor=none;top=0;left=0;bottom=0;right=0;editable=1;overflow=hidden;whiteSpace=wrap;html=1;" vertex="1" parent="3_Jl5_TaxesmlZ9jGOSC-165">
          <mxGeometry width="30" height="30" as="geometry">
            <mxRectangle width="30" height="30" as="alternateBounds" />
          </mxGeometry>
        </mxCell>
        <mxCell id="3_Jl5_TaxesmlZ9jGOSC-167" value="" style="shape=partialRectangle;connectable=0;fillColor=none;top=0;left=0;bottom=0;right=0;align=left;spacingLeft=6;overflow=hidden;whiteSpace=wrap;html=1;" vertex="1" parent="3_Jl5_TaxesmlZ9jGOSC-165">
          <mxGeometry x="30" width="150" height="30" as="geometry">
            <mxRectangle width="150" height="30" as="alternateBounds" />
          </mxGeometry>
        </mxCell>
        <mxCell id="3_Jl5_TaxesmlZ9jGOSC-168" value="" style="shape=tableRow;horizontal=0;startSize=0;swimlaneHead=0;swimlaneBody=0;fillColor=none;collapsible=0;dropTarget=0;points=[[0,0.5],[1,0.5]];portConstraint=eastwest;top=0;left=0;right=0;bottom=0;" vertex="1" parent="3_Jl5_TaxesmlZ9jGOSC-158">
          <mxGeometry y="120" width="180" height="30" as="geometry" />
        </mxCell>
        <mxCell id="3_Jl5_TaxesmlZ9jGOSC-169" value="" style="shape=partialRectangle;connectable=0;fillColor=none;top=0;left=0;bottom=0;right=0;editable=1;overflow=hidden;whiteSpace=wrap;html=1;" vertex="1" parent="3_Jl5_TaxesmlZ9jGOSC-168">
          <mxGeometry width="30" height="30" as="geometry">
            <mxRectangle width="30" height="30" as="alternateBounds" />
          </mxGeometry>
        </mxCell>
        <mxCell id="3_Jl5_TaxesmlZ9jGOSC-170" value="" style="shape=partialRectangle;connectable=0;fillColor=none;top=0;left=0;bottom=0;right=0;align=left;spacingLeft=6;overflow=hidden;whiteSpace=wrap;html=1;" vertex="1" parent="3_Jl5_TaxesmlZ9jGOSC-168">
          <mxGeometry x="30" width="150" height="30" as="geometry">
            <mxRectangle width="150" height="30" as="alternateBounds" />
          </mxGeometry>
        </mxCell>
        <mxCell id="3_Jl5_TaxesmlZ9jGOSC-171" value="과목" style="shape=table;startSize=30;container=1;collapsible=1;childLayout=tableLayout;fixedRows=1;rowLines=0;fontStyle=1;align=center;resizeLast=1;html=1;" vertex="1" parent="1">
          <mxGeometry x="770" y="1095" width="180" height="150" as="geometry" />
        </mxCell>
        <mxCell id="3_Jl5_TaxesmlZ9jGOSC-172" value="" style="shape=tableRow;horizontal=0;startSize=0;swimlaneHead=0;swimlaneBody=0;fillColor=none;collapsible=0;dropTarget=0;points=[[0,0.5],[1,0.5]];portConstraint=eastwest;top=0;left=0;right=0;bottom=1;" vertex="1" parent="3_Jl5_TaxesmlZ9jGOSC-171">
          <mxGeometry y="30" width="180" height="30" as="geometry" />
        </mxCell>
        <mxCell id="3_Jl5_TaxesmlZ9jGOSC-173" value="PK" style="shape=partialRectangle;connectable=0;fillColor=none;top=0;left=0;bottom=0;right=0;fontStyle=1;overflow=hidden;whiteSpace=wrap;html=1;" vertex="1" parent="3_Jl5_TaxesmlZ9jGOSC-172">
          <mxGeometry width="30" height="30" as="geometry">
            <mxRectangle width="30" height="30" as="alternateBounds" />
          </mxGeometry>
        </mxCell>
        <mxCell id="3_Jl5_TaxesmlZ9jGOSC-174" value="과목코드" style="shape=partialRectangle;connectable=0;fillColor=none;top=0;left=0;bottom=0;right=0;align=left;spacingLeft=6;fontStyle=5;overflow=hidden;whiteSpace=wrap;html=1;" vertex="1" parent="3_Jl5_TaxesmlZ9jGOSC-172">
          <mxGeometry x="30" width="150" height="30" as="geometry">
            <mxRectangle width="150" height="30" as="alternateBounds" />
          </mxGeometry>
        </mxCell>
        <mxCell id="3_Jl5_TaxesmlZ9jGOSC-175" value="" style="shape=tableRow;horizontal=0;startSize=0;swimlaneHead=0;swimlaneBody=0;fillColor=none;collapsible=0;dropTarget=0;points=[[0,0.5],[1,0.5]];portConstraint=eastwest;top=0;left=0;right=0;bottom=0;" vertex="1" parent="3_Jl5_TaxesmlZ9jGOSC-171">
          <mxGeometry y="60" width="180" height="30" as="geometry" />
        </mxCell>
        <mxCell id="3_Jl5_TaxesmlZ9jGOSC-176" value="" style="shape=partialRectangle;connectable=0;fillColor=none;top=0;left=0;bottom=0;right=0;editable=1;overflow=hidden;whiteSpace=wrap;html=1;" vertex="1" parent="3_Jl5_TaxesmlZ9jGOSC-175">
          <mxGeometry width="30" height="30" as="geometry">
            <mxRectangle width="30" height="30" as="alternateBounds" />
          </mxGeometry>
        </mxCell>
        <mxCell id="3_Jl5_TaxesmlZ9jGOSC-177" value="과목명" style="shape=partialRectangle;connectable=0;fillColor=none;top=0;left=0;bottom=0;right=0;align=left;spacingLeft=6;overflow=hidden;whiteSpace=wrap;html=1;" vertex="1" parent="3_Jl5_TaxesmlZ9jGOSC-175">
          <mxGeometry x="30" width="150" height="30" as="geometry">
            <mxRectangle width="150" height="30" as="alternateBounds" />
          </mxGeometry>
        </mxCell>
        <mxCell id="3_Jl5_TaxesmlZ9jGOSC-178" value="" style="shape=tableRow;horizontal=0;startSize=0;swimlaneHead=0;swimlaneBody=0;fillColor=none;collapsible=0;dropTarget=0;points=[[0,0.5],[1,0.5]];portConstraint=eastwest;top=0;left=0;right=0;bottom=0;" vertex="1" parent="3_Jl5_TaxesmlZ9jGOSC-171">
          <mxGeometry y="90" width="180" height="30" as="geometry" />
        </mxCell>
        <mxCell id="3_Jl5_TaxesmlZ9jGOSC-179" value="" style="shape=partialRectangle;connectable=0;fillColor=none;top=0;left=0;bottom=0;right=0;editable=1;overflow=hidden;whiteSpace=wrap;html=1;" vertex="1" parent="3_Jl5_TaxesmlZ9jGOSC-178">
          <mxGeometry width="30" height="30" as="geometry">
            <mxRectangle width="30" height="30" as="alternateBounds" />
          </mxGeometry>
        </mxCell>
        <mxCell id="3_Jl5_TaxesmlZ9jGOSC-180" value="" style="shape=partialRectangle;connectable=0;fillColor=none;top=0;left=0;bottom=0;right=0;align=left;spacingLeft=6;overflow=hidden;whiteSpace=wrap;html=1;" vertex="1" parent="3_Jl5_TaxesmlZ9jGOSC-178">
          <mxGeometry x="30" width="150" height="30" as="geometry">
            <mxRectangle width="150" height="30" as="alternateBounds" />
          </mxGeometry>
        </mxCell>
        <mxCell id="3_Jl5_TaxesmlZ9jGOSC-181" value="" style="shape=tableRow;horizontal=0;startSize=0;swimlaneHead=0;swimlaneBody=0;fillColor=none;collapsible=0;dropTarget=0;points=[[0,0.5],[1,0.5]];portConstraint=eastwest;top=0;left=0;right=0;bottom=0;" vertex="1" parent="3_Jl5_TaxesmlZ9jGOSC-171">
          <mxGeometry y="120" width="180" height="30" as="geometry" />
        </mxCell>
        <mxCell id="3_Jl5_TaxesmlZ9jGOSC-182" value="" style="shape=partialRectangle;connectable=0;fillColor=none;top=0;left=0;bottom=0;right=0;editable=1;overflow=hidden;whiteSpace=wrap;html=1;" vertex="1" parent="3_Jl5_TaxesmlZ9jGOSC-181">
          <mxGeometry width="30" height="30" as="geometry">
            <mxRectangle width="30" height="30" as="alternateBounds" />
          </mxGeometry>
        </mxCell>
        <mxCell id="3_Jl5_TaxesmlZ9jGOSC-183" value="" style="shape=partialRectangle;connectable=0;fillColor=none;top=0;left=0;bottom=0;right=0;align=left;spacingLeft=6;overflow=hidden;whiteSpace=wrap;html=1;" vertex="1" parent="3_Jl5_TaxesmlZ9jGOSC-181">
          <mxGeometry x="30" width="150" height="30" as="geometry">
            <mxRectangle width="150" height="30" as="alternateBounds" />
          </mxGeometry>
        </mxCell>
        <mxCell id="3_Jl5_TaxesmlZ9jGOSC-184" value="수업" style="shape=table;startSize=30;container=1;collapsible=1;childLayout=tableLayout;fixedRows=1;rowLines=0;fontStyle=1;align=center;resizeLast=1;html=1;" vertex="1" parent="1">
          <mxGeometry x="670" y="1285" width="180" height="150" as="geometry" />
        </mxCell>
        <mxCell id="3_Jl5_TaxesmlZ9jGOSC-185" value="" style="shape=tableRow;horizontal=0;startSize=0;swimlaneHead=0;swimlaneBody=0;fillColor=none;collapsible=0;dropTarget=0;points=[[0,0.5],[1,0.5]];portConstraint=eastwest;top=0;left=0;right=0;bottom=1;" vertex="1" parent="3_Jl5_TaxesmlZ9jGOSC-184">
          <mxGeometry y="30" width="180" height="30" as="geometry" />
        </mxCell>
        <mxCell id="3_Jl5_TaxesmlZ9jGOSC-186" value="PK" style="shape=partialRectangle;connectable=0;fillColor=none;top=0;left=0;bottom=0;right=0;fontStyle=1;overflow=hidden;whiteSpace=wrap;html=1;" vertex="1" parent="3_Jl5_TaxesmlZ9jGOSC-185">
          <mxGeometry width="30" height="30" as="geometry">
            <mxRectangle width="30" height="30" as="alternateBounds" />
          </mxGeometry>
        </mxCell>
        <mxCell id="3_Jl5_TaxesmlZ9jGOSC-187" value="사번" style="shape=partialRectangle;connectable=0;fillColor=none;top=0;left=0;bottom=0;right=0;align=left;spacingLeft=6;fontStyle=5;overflow=hidden;whiteSpace=wrap;html=1;" vertex="1" parent="3_Jl5_TaxesmlZ9jGOSC-185">
          <mxGeometry x="30" width="150" height="30" as="geometry">
            <mxRectangle width="150" height="30" as="alternateBounds" />
          </mxGeometry>
        </mxCell>
        <mxCell id="3_Jl5_TaxesmlZ9jGOSC-188" value="" style="shape=tableRow;horizontal=0;startSize=0;swimlaneHead=0;swimlaneBody=0;fillColor=none;collapsible=0;dropTarget=0;points=[[0,0.5],[1,0.5]];portConstraint=eastwest;top=0;left=0;right=0;bottom=0;" vertex="1" parent="3_Jl5_TaxesmlZ9jGOSC-184">
          <mxGeometry y="60" width="180" height="30" as="geometry" />
        </mxCell>
        <mxCell id="3_Jl5_TaxesmlZ9jGOSC-189" value="FK" style="shape=partialRectangle;connectable=0;fillColor=none;top=0;left=0;bottom=0;right=0;editable=1;overflow=hidden;whiteSpace=wrap;html=1;" vertex="1" parent="3_Jl5_TaxesmlZ9jGOSC-188">
          <mxGeometry width="30" height="30" as="geometry">
            <mxRectangle width="30" height="30" as="alternateBounds" />
          </mxGeometry>
        </mxCell>
        <mxCell id="3_Jl5_TaxesmlZ9jGOSC-190" value="과목코드" style="shape=partialRectangle;connectable=0;fillColor=none;top=0;left=0;bottom=0;right=0;align=left;spacingLeft=6;overflow=hidden;whiteSpace=wrap;html=1;" vertex="1" parent="3_Jl5_TaxesmlZ9jGOSC-188">
          <mxGeometry x="30" width="150" height="30" as="geometry">
            <mxRectangle width="150" height="30" as="alternateBounds" />
          </mxGeometry>
        </mxCell>
        <mxCell id="3_Jl5_TaxesmlZ9jGOSC-191" value="" style="shape=tableRow;horizontal=0;startSize=0;swimlaneHead=0;swimlaneBody=0;fillColor=none;collapsible=0;dropTarget=0;points=[[0,0.5],[1,0.5]];portConstraint=eastwest;top=0;left=0;right=0;bottom=0;" vertex="1" parent="3_Jl5_TaxesmlZ9jGOSC-184">
          <mxGeometry y="90" width="180" height="30" as="geometry" />
        </mxCell>
        <mxCell id="3_Jl5_TaxesmlZ9jGOSC-192" value="" style="shape=partialRectangle;connectable=0;fillColor=none;top=0;left=0;bottom=0;right=0;editable=1;overflow=hidden;whiteSpace=wrap;html=1;" vertex="1" parent="3_Jl5_TaxesmlZ9jGOSC-191">
          <mxGeometry width="30" height="30" as="geometry">
            <mxRectangle width="30" height="30" as="alternateBounds" />
          </mxGeometry>
        </mxCell>
        <mxCell id="3_Jl5_TaxesmlZ9jGOSC-193" value="" style="shape=partialRectangle;connectable=0;fillColor=none;top=0;left=0;bottom=0;right=0;align=left;spacingLeft=6;overflow=hidden;whiteSpace=wrap;html=1;" vertex="1" parent="3_Jl5_TaxesmlZ9jGOSC-191">
          <mxGeometry x="30" width="150" height="30" as="geometry">
            <mxRectangle width="150" height="30" as="alternateBounds" />
          </mxGeometry>
        </mxCell>
        <mxCell id="3_Jl5_TaxesmlZ9jGOSC-194" value="" style="shape=tableRow;horizontal=0;startSize=0;swimlaneHead=0;swimlaneBody=0;fillColor=none;collapsible=0;dropTarget=0;points=[[0,0.5],[1,0.5]];portConstraint=eastwest;top=0;left=0;right=0;bottom=0;" vertex="1" parent="3_Jl5_TaxesmlZ9jGOSC-184">
          <mxGeometry y="120" width="180" height="30" as="geometry" />
        </mxCell>
        <mxCell id="3_Jl5_TaxesmlZ9jGOSC-195" value="" style="shape=partialRectangle;connectable=0;fillColor=none;top=0;left=0;bottom=0;right=0;editable=1;overflow=hidden;whiteSpace=wrap;html=1;" vertex="1" parent="3_Jl5_TaxesmlZ9jGOSC-194">
          <mxGeometry width="30" height="30" as="geometry">
            <mxRectangle width="30" height="30" as="alternateBounds" />
          </mxGeometry>
        </mxCell>
        <mxCell id="3_Jl5_TaxesmlZ9jGOSC-196" value="" style="shape=partialRectangle;connectable=0;fillColor=none;top=0;left=0;bottom=0;right=0;align=left;spacingLeft=6;overflow=hidden;whiteSpace=wrap;html=1;" vertex="1" parent="3_Jl5_TaxesmlZ9jGOSC-194">
          <mxGeometry x="30" width="150" height="30" as="geometry">
            <mxRectangle width="150" height="30" as="alternateBounds" />
          </mxGeometry>
        </mxCell>
        <mxCell id="3_Jl5_TaxesmlZ9jGOSC-201" value="" style="endArrow=none;html=1;rounded=0;entryX=0;entryY=0.5;entryDx=0;entryDy=0;" edge="1" parent="1" target="3_Jl5_TaxesmlZ9jGOSC-141">
          <mxGeometry relative="1" as="geometry">
            <mxPoint x="316.25" y="1119.5" as="sourcePoint" />
            <mxPoint x="476.25" y="1119.5" as="targetPoint" />
          </mxGeometry>
        </mxCell>
        <mxCell id="3_Jl5_TaxesmlZ9jGOSC-202" value="N" style="resizable=0;html=1;whiteSpace=wrap;align=right;verticalAlign=bottom;" connectable="0" vertex="1" parent="3_Jl5_TaxesmlZ9jGOSC-201">
          <mxGeometry x="1" relative="1" as="geometry" />
        </mxCell>
        <mxCell id="3_Jl5_TaxesmlZ9jGOSC-203" value="" style="endArrow=none;html=1;rounded=0;entryX=1;entryY=0.5;entryDx=0;entryDy=0;exitX=0;exitY=0.5;exitDx=0;exitDy=0;" edge="1" parent="1" source="3_Jl5_TaxesmlZ9jGOSC-140" target="3_Jl5_TaxesmlZ9jGOSC-142">
          <mxGeometry relative="1" as="geometry">
            <mxPoint x="200" y="1260" as="sourcePoint" />
            <mxPoint x="360" y="1260" as="targetPoint" />
          </mxGeometry>
        </mxCell>
        <mxCell id="3_Jl5_TaxesmlZ9jGOSC-204" value="N" style="resizable=0;html=1;whiteSpace=wrap;align=right;verticalAlign=bottom;" connectable="0" vertex="1" parent="3_Jl5_TaxesmlZ9jGOSC-203">
          <mxGeometry x="1" relative="1" as="geometry" />
        </mxCell>
        <mxCell id="3_Jl5_TaxesmlZ9jGOSC-205" value="N:M 관계의 경우 양 쪽 모두 다수 (many)를 가짐으로 관계에서 새로운 릴레이션을 생성해야 함&lt;div&gt;교차 릴레이션(교차 테이블)&lt;/div&gt;" style="text;html=1;align=center;verticalAlign=middle;resizable=0;points=[];autosize=1;strokeColor=none;fillColor=none;fontStyle=1" vertex="1" parent="1">
          <mxGeometry x="10" y="1320" width="520" height="40" as="geometry" />
        </mxCell>
        <mxCell id="3_Jl5_TaxesmlZ9jGOSC-206" value="이진 N:M 관계" style="text;html=1;align=center;verticalAlign=middle;resizable=0;points=[];autosize=1;strokeColor=none;fillColor=none;fontStyle=1" vertex="1" parent="1">
          <mxGeometry x="180" y="1040" width="100" height="30" as="geometry" />
        </mxCell>
        <mxCell id="3_Jl5_TaxesmlZ9jGOSC-207" value="사원" style="whiteSpace=wrap;html=1;align=center;" vertex="1" parent="1">
          <mxGeometry x="216.5" y="1522" width="100" height="40" as="geometry" />
        </mxCell>
        <mxCell id="3_Jl5_TaxesmlZ9jGOSC-212" value="부양" style="shape=rhombus;double=1;perimeter=rhombusPerimeter;whiteSpace=wrap;html=1;align=center;" vertex="1" parent="1">
          <mxGeometry x="206.5" y="1602" width="120" height="60" as="geometry" />
        </mxCell>
        <mxCell id="3_Jl5_TaxesmlZ9jGOSC-213" value="가족" style="shape=ext;margin=3;double=1;whiteSpace=wrap;html=1;align=center;" vertex="1" parent="1">
          <mxGeometry x="216.5" y="1722" width="100" height="40" as="geometry" />
        </mxCell>
        <mxCell id="3_Jl5_TaxesmlZ9jGOSC-214" value="" style="endArrow=none;html=1;rounded=0;entryX=0.5;entryY=1;entryDx=0;entryDy=0;exitX=0.5;exitY=0;exitDx=0;exitDy=0;" edge="1" parent="1" source="3_Jl5_TaxesmlZ9jGOSC-212" target="3_Jl5_TaxesmlZ9jGOSC-207">
          <mxGeometry relative="1" as="geometry">
            <mxPoint x="206.5" y="1422" as="sourcePoint" />
            <mxPoint x="366.5" y="1422" as="targetPoint" />
          </mxGeometry>
        </mxCell>
        <mxCell id="3_Jl5_TaxesmlZ9jGOSC-215" value="1" style="resizable=0;html=1;whiteSpace=wrap;align=right;verticalAlign=bottom;" connectable="0" vertex="1" parent="3_Jl5_TaxesmlZ9jGOSC-214">
          <mxGeometry x="1" relative="1" as="geometry" />
        </mxCell>
        <mxCell id="3_Jl5_TaxesmlZ9jGOSC-216" value="" style="endArrow=none;html=1;rounded=0;exitX=0.5;exitY=1;exitDx=0;exitDy=0;entryX=0.5;entryY=0;entryDx=0;entryDy=0;" edge="1" parent="1" source="3_Jl5_TaxesmlZ9jGOSC-212" target="3_Jl5_TaxesmlZ9jGOSC-213">
          <mxGeometry relative="1" as="geometry">
            <mxPoint x="206.5" y="1422" as="sourcePoint" />
            <mxPoint x="271.5" y="1702" as="targetPoint" />
          </mxGeometry>
        </mxCell>
        <mxCell id="3_Jl5_TaxesmlZ9jGOSC-217" value="N" style="resizable=0;html=1;whiteSpace=wrap;align=right;verticalAlign=bottom;" connectable="0" vertex="1" parent="3_Jl5_TaxesmlZ9jGOSC-216">
          <mxGeometry x="1" relative="1" as="geometry" />
        </mxCell>
        <mxCell id="3_Jl5_TaxesmlZ9jGOSC-219" value="이름" style="ellipse;whiteSpace=wrap;html=1;align=center;" vertex="1" parent="1">
          <mxGeometry x="46.5" y="1482" width="100" height="40" as="geometry" />
        </mxCell>
        <mxCell id="3_Jl5_TaxesmlZ9jGOSC-220" value="&lt;b&gt;사번&lt;/b&gt;" style="ellipse;whiteSpace=wrap;html=1;align=center;" vertex="1" parent="1">
          <mxGeometry x="46.5" y="1542" width="100" height="40" as="geometry" />
        </mxCell>
        <mxCell id="3_Jl5_TaxesmlZ9jGOSC-224" value="사원" style="shape=table;startSize=30;container=1;collapsible=1;childLayout=tableLayout;fixedRows=1;rowLines=0;fontStyle=1;align=center;resizeLast=1;html=1;" vertex="1" parent="1">
          <mxGeometry x="560" y="1520" width="180" height="150" as="geometry" />
        </mxCell>
        <mxCell id="3_Jl5_TaxesmlZ9jGOSC-225" value="" style="shape=tableRow;horizontal=0;startSize=0;swimlaneHead=0;swimlaneBody=0;fillColor=none;collapsible=0;dropTarget=0;points=[[0,0.5],[1,0.5]];portConstraint=eastwest;top=0;left=0;right=0;bottom=1;" vertex="1" parent="3_Jl5_TaxesmlZ9jGOSC-224">
          <mxGeometry y="30" width="180" height="30" as="geometry" />
        </mxCell>
        <mxCell id="3_Jl5_TaxesmlZ9jGOSC-226" value="PK" style="shape=partialRectangle;connectable=0;fillColor=none;top=0;left=0;bottom=0;right=0;fontStyle=1;overflow=hidden;whiteSpace=wrap;html=1;" vertex="1" parent="3_Jl5_TaxesmlZ9jGOSC-225">
          <mxGeometry width="30" height="30" as="geometry">
            <mxRectangle width="30" height="30" as="alternateBounds" />
          </mxGeometry>
        </mxCell>
        <mxCell id="3_Jl5_TaxesmlZ9jGOSC-227" value="사번" style="shape=partialRectangle;connectable=0;fillColor=none;top=0;left=0;bottom=0;right=0;align=left;spacingLeft=6;fontStyle=5;overflow=hidden;whiteSpace=wrap;html=1;" vertex="1" parent="3_Jl5_TaxesmlZ9jGOSC-225">
          <mxGeometry x="30" width="150" height="30" as="geometry">
            <mxRectangle width="150" height="30" as="alternateBounds" />
          </mxGeometry>
        </mxCell>
        <mxCell id="3_Jl5_TaxesmlZ9jGOSC-228" value="" style="shape=tableRow;horizontal=0;startSize=0;swimlaneHead=0;swimlaneBody=0;fillColor=none;collapsible=0;dropTarget=0;points=[[0,0.5],[1,0.5]];portConstraint=eastwest;top=0;left=0;right=0;bottom=0;" vertex="1" parent="3_Jl5_TaxesmlZ9jGOSC-224">
          <mxGeometry y="60" width="180" height="30" as="geometry" />
        </mxCell>
        <mxCell id="3_Jl5_TaxesmlZ9jGOSC-229" value="" style="shape=partialRectangle;connectable=0;fillColor=none;top=0;left=0;bottom=0;right=0;editable=1;overflow=hidden;whiteSpace=wrap;html=1;" vertex="1" parent="3_Jl5_TaxesmlZ9jGOSC-228">
          <mxGeometry width="30" height="30" as="geometry">
            <mxRectangle width="30" height="30" as="alternateBounds" />
          </mxGeometry>
        </mxCell>
        <mxCell id="3_Jl5_TaxesmlZ9jGOSC-230" value="이름" style="shape=partialRectangle;connectable=0;fillColor=none;top=0;left=0;bottom=0;right=0;align=left;spacingLeft=6;overflow=hidden;whiteSpace=wrap;html=1;" vertex="1" parent="3_Jl5_TaxesmlZ9jGOSC-228">
          <mxGeometry x="30" width="150" height="30" as="geometry">
            <mxRectangle width="150" height="30" as="alternateBounds" />
          </mxGeometry>
        </mxCell>
        <mxCell id="3_Jl5_TaxesmlZ9jGOSC-231" value="" style="shape=tableRow;horizontal=0;startSize=0;swimlaneHead=0;swimlaneBody=0;fillColor=none;collapsible=0;dropTarget=0;points=[[0,0.5],[1,0.5]];portConstraint=eastwest;top=0;left=0;right=0;bottom=0;" vertex="1" parent="3_Jl5_TaxesmlZ9jGOSC-224">
          <mxGeometry y="90" width="180" height="30" as="geometry" />
        </mxCell>
        <mxCell id="3_Jl5_TaxesmlZ9jGOSC-232" value="" style="shape=partialRectangle;connectable=0;fillColor=none;top=0;left=0;bottom=0;right=0;editable=1;overflow=hidden;whiteSpace=wrap;html=1;" vertex="1" parent="3_Jl5_TaxesmlZ9jGOSC-231">
          <mxGeometry width="30" height="30" as="geometry">
            <mxRectangle width="30" height="30" as="alternateBounds" />
          </mxGeometry>
        </mxCell>
        <mxCell id="3_Jl5_TaxesmlZ9jGOSC-233" value="" style="shape=partialRectangle;connectable=0;fillColor=none;top=0;left=0;bottom=0;right=0;align=left;spacingLeft=6;overflow=hidden;whiteSpace=wrap;html=1;" vertex="1" parent="3_Jl5_TaxesmlZ9jGOSC-231">
          <mxGeometry x="30" width="150" height="30" as="geometry">
            <mxRectangle width="150" height="30" as="alternateBounds" />
          </mxGeometry>
        </mxCell>
        <mxCell id="3_Jl5_TaxesmlZ9jGOSC-234" value="" style="shape=tableRow;horizontal=0;startSize=0;swimlaneHead=0;swimlaneBody=0;fillColor=none;collapsible=0;dropTarget=0;points=[[0,0.5],[1,0.5]];portConstraint=eastwest;top=0;left=0;right=0;bottom=0;" vertex="1" parent="3_Jl5_TaxesmlZ9jGOSC-224">
          <mxGeometry y="120" width="180" height="30" as="geometry" />
        </mxCell>
        <mxCell id="3_Jl5_TaxesmlZ9jGOSC-235" value="" style="shape=partialRectangle;connectable=0;fillColor=none;top=0;left=0;bottom=0;right=0;editable=1;overflow=hidden;whiteSpace=wrap;html=1;" vertex="1" parent="3_Jl5_TaxesmlZ9jGOSC-234">
          <mxGeometry width="30" height="30" as="geometry">
            <mxRectangle width="30" height="30" as="alternateBounds" />
          </mxGeometry>
        </mxCell>
        <mxCell id="3_Jl5_TaxesmlZ9jGOSC-236" value="" style="shape=partialRectangle;connectable=0;fillColor=none;top=0;left=0;bottom=0;right=0;align=left;spacingLeft=6;overflow=hidden;whiteSpace=wrap;html=1;" vertex="1" parent="3_Jl5_TaxesmlZ9jGOSC-234">
          <mxGeometry x="30" width="150" height="30" as="geometry">
            <mxRectangle width="150" height="30" as="alternateBounds" />
          </mxGeometry>
        </mxCell>
        <mxCell id="3_Jl5_TaxesmlZ9jGOSC-237" value="가족" style="shape=table;startSize=30;container=1;collapsible=1;childLayout=tableLayout;fixedRows=1;rowLines=0;fontStyle=1;align=center;resizeLast=1;html=1;" vertex="1" parent="1">
          <mxGeometry x="760" y="1520" width="180" height="150" as="geometry" />
        </mxCell>
        <mxCell id="3_Jl5_TaxesmlZ9jGOSC-238" value="" style="shape=tableRow;horizontal=0;startSize=0;swimlaneHead=0;swimlaneBody=0;fillColor=none;collapsible=0;dropTarget=0;points=[[0,0.5],[1,0.5]];portConstraint=eastwest;top=0;left=0;right=0;bottom=1;" vertex="1" parent="3_Jl5_TaxesmlZ9jGOSC-237">
          <mxGeometry y="30" width="180" height="30" as="geometry" />
        </mxCell>
        <mxCell id="3_Jl5_TaxesmlZ9jGOSC-239" value="PK" style="shape=partialRectangle;connectable=0;fillColor=none;top=0;left=0;bottom=0;right=0;fontStyle=1;overflow=hidden;whiteSpace=wrap;html=1;" vertex="1" parent="3_Jl5_TaxesmlZ9jGOSC-238">
          <mxGeometry width="30" height="30" as="geometry">
            <mxRectangle width="30" height="30" as="alternateBounds" />
          </mxGeometry>
        </mxCell>
        <mxCell id="3_Jl5_TaxesmlZ9jGOSC-240" value="사번" style="shape=partialRectangle;connectable=0;fillColor=none;top=0;left=0;bottom=0;right=0;align=left;spacingLeft=6;fontStyle=5;overflow=hidden;whiteSpace=wrap;html=1;" vertex="1" parent="3_Jl5_TaxesmlZ9jGOSC-238">
          <mxGeometry x="30" width="150" height="30" as="geometry">
            <mxRectangle width="150" height="30" as="alternateBounds" />
          </mxGeometry>
        </mxCell>
        <mxCell id="3_Jl5_TaxesmlZ9jGOSC-241" value="" style="shape=tableRow;horizontal=0;startSize=0;swimlaneHead=0;swimlaneBody=0;fillColor=none;collapsible=0;dropTarget=0;points=[[0,0.5],[1,0.5]];portConstraint=eastwest;top=0;left=0;right=0;bottom=0;" vertex="1" parent="3_Jl5_TaxesmlZ9jGOSC-237">
          <mxGeometry y="60" width="180" height="30" as="geometry" />
        </mxCell>
        <mxCell id="3_Jl5_TaxesmlZ9jGOSC-242" value="PK" style="shape=partialRectangle;connectable=0;fillColor=none;top=0;left=0;bottom=0;right=0;editable=1;overflow=hidden;whiteSpace=wrap;html=1;" vertex="1" parent="3_Jl5_TaxesmlZ9jGOSC-241">
          <mxGeometry width="30" height="30" as="geometry">
            <mxRectangle width="30" height="30" as="alternateBounds" />
          </mxGeometry>
        </mxCell>
        <mxCell id="3_Jl5_TaxesmlZ9jGOSC-243" value="&lt;b&gt;&lt;u&gt;이름&lt;/u&gt;&lt;/b&gt;" style="shape=partialRectangle;connectable=0;fillColor=none;top=0;left=0;bottom=0;right=0;align=left;spacingLeft=6;overflow=hidden;whiteSpace=wrap;html=1;" vertex="1" parent="3_Jl5_TaxesmlZ9jGOSC-241">
          <mxGeometry x="30" width="150" height="30" as="geometry">
            <mxRectangle width="150" height="30" as="alternateBounds" />
          </mxGeometry>
        </mxCell>
        <mxCell id="3_Jl5_TaxesmlZ9jGOSC-244" value="" style="shape=tableRow;horizontal=0;startSize=0;swimlaneHead=0;swimlaneBody=0;fillColor=none;collapsible=0;dropTarget=0;points=[[0,0.5],[1,0.5]];portConstraint=eastwest;top=0;left=0;right=0;bottom=0;" vertex="1" parent="3_Jl5_TaxesmlZ9jGOSC-237">
          <mxGeometry y="90" width="180" height="30" as="geometry" />
        </mxCell>
        <mxCell id="3_Jl5_TaxesmlZ9jGOSC-245" value="" style="shape=partialRectangle;connectable=0;fillColor=none;top=0;left=0;bottom=0;right=0;editable=1;overflow=hidden;whiteSpace=wrap;html=1;" vertex="1" parent="3_Jl5_TaxesmlZ9jGOSC-244">
          <mxGeometry width="30" height="30" as="geometry">
            <mxRectangle width="30" height="30" as="alternateBounds" />
          </mxGeometry>
        </mxCell>
        <mxCell id="3_Jl5_TaxesmlZ9jGOSC-246" value="" style="shape=partialRectangle;connectable=0;fillColor=none;top=0;left=0;bottom=0;right=0;align=left;spacingLeft=6;overflow=hidden;whiteSpace=wrap;html=1;" vertex="1" parent="3_Jl5_TaxesmlZ9jGOSC-244">
          <mxGeometry x="30" width="150" height="30" as="geometry">
            <mxRectangle width="150" height="30" as="alternateBounds" />
          </mxGeometry>
        </mxCell>
        <mxCell id="3_Jl5_TaxesmlZ9jGOSC-247" value="" style="shape=tableRow;horizontal=0;startSize=0;swimlaneHead=0;swimlaneBody=0;fillColor=none;collapsible=0;dropTarget=0;points=[[0,0.5],[1,0.5]];portConstraint=eastwest;top=0;left=0;right=0;bottom=0;" vertex="1" parent="3_Jl5_TaxesmlZ9jGOSC-237">
          <mxGeometry y="120" width="180" height="30" as="geometry" />
        </mxCell>
        <mxCell id="3_Jl5_TaxesmlZ9jGOSC-248" value="" style="shape=partialRectangle;connectable=0;fillColor=none;top=0;left=0;bottom=0;right=0;editable=1;overflow=hidden;whiteSpace=wrap;html=1;" vertex="1" parent="3_Jl5_TaxesmlZ9jGOSC-247">
          <mxGeometry width="30" height="30" as="geometry">
            <mxRectangle width="30" height="30" as="alternateBounds" />
          </mxGeometry>
        </mxCell>
        <mxCell id="3_Jl5_TaxesmlZ9jGOSC-249" value="" style="shape=partialRectangle;connectable=0;fillColor=none;top=0;left=0;bottom=0;right=0;align=left;spacingLeft=6;overflow=hidden;whiteSpace=wrap;html=1;" vertex="1" parent="3_Jl5_TaxesmlZ9jGOSC-247">
          <mxGeometry x="30" width="150" height="30" as="geometry">
            <mxRectangle width="150" height="30" as="alternateBounds" />
          </mxGeometry>
        </mxCell>
        <mxCell id="3_Jl5_TaxesmlZ9jGOSC-250" value="&lt;b&gt;약한 개체 타입 매핑&lt;/b&gt;" style="text;html=1;align=center;verticalAlign=middle;resizable=0;points=[];autosize=1;strokeColor=none;fillColor=none;" vertex="1" parent="1">
          <mxGeometry x="156.25" y="1452" width="130" height="30" as="geometry" />
        </mxCell>
        <mxCell id="3_Jl5_TaxesmlZ9jGOSC-251" value="&lt;b&gt;가족 엔티티는 사원 엔티티에 종속된 약한 개체&lt;/b&gt;&lt;div&gt;&lt;b&gt;가족 개체의 기본 키는 사번 속성의 기본키를 외래키로 포함&lt;/b&gt;&lt;/div&gt;&lt;div style=&quot;&quot;&gt;&lt;b&gt;식별관계(identifying Relation)&lt;/b&gt;&lt;/div&gt;" style="text;html=1;align=left;verticalAlign=middle;resizable=0;points=[];autosize=1;strokeColor=none;fillColor=none;" vertex="1" parent="1">
          <mxGeometry x="360" y="1712" width="340" height="60" as="geometry" />
        </mxCell>
        <mxCell id="3_Jl5_TaxesmlZ9jGOSC-252" value="&lt;b&gt;이름&lt;/b&gt;" style="ellipse;whiteSpace=wrap;html=1;align=center;" vertex="1" parent="1">
          <mxGeometry x="50" y="1722" width="100" height="40" as="geometry" />
        </mxCell>
        <mxCell id="3_Jl5_TaxesmlZ9jGOSC-254" value="" style="line;strokeWidth=1;rotatable=0;dashed=0;labelPosition=right;align=left;verticalAlign=middle;spacingTop=0;spacingLeft=6;points=[];portConstraint=eastwest;" vertex="1" parent="1">
          <mxGeometry x="146.5" y="1737" width="73.5" height="10" as="geometry" />
        </mxCell>
        <mxCell id="n0N5KXo2KfuKOkcl6Kut-2" value="" style="endArrow=classic;html=1;rounded=0;exitX=0;exitY=0.5;exitDx=0;exitDy=0;entryX=1;entryY=0.5;entryDx=0;entryDy=0;" edge="1" parent="1" source="3_Jl5_TaxesmlZ9jGOSC-207" target="3_Jl5_TaxesmlZ9jGOSC-219">
          <mxGeometry width="50" height="50" relative="1" as="geometry">
            <mxPoint x="460" y="1570" as="sourcePoint" />
            <mxPoint x="510" y="1520" as="targetPoint" />
          </mxGeometry>
        </mxCell>
        <mxCell id="n0N5KXo2KfuKOkcl6Kut-3" value="" style="endArrow=classic;html=1;rounded=0;exitX=0;exitY=0.5;exitDx=0;exitDy=0;entryX=1;entryY=0.5;entryDx=0;entryDy=0;" edge="1" parent="1" source="3_Jl5_TaxesmlZ9jGOSC-207" target="3_Jl5_TaxesmlZ9jGOSC-220">
          <mxGeometry width="50" height="50" relative="1" as="geometry">
            <mxPoint x="460" y="1570" as="sourcePoint" />
            <mxPoint x="510" y="1520" as="targetPoint" />
          </mxGeometry>
        </mxCell>
        <mxCell id="n0N5KXo2KfuKOkcl6Kut-4" value="" style="endArrow=none;html=1;rounded=0;exitX=0.5;exitY=0;exitDx=0;exitDy=0;entryX=0.5;entryY=0.967;entryDx=0;entryDy=0;entryPerimeter=0;" edge="1" parent="1" source="3_Jl5_TaxesmlZ9jGOSC-184" target="3_Jl5_TaxesmlZ9jGOSC-168">
          <mxGeometry width="50" height="50" relative="1" as="geometry">
            <mxPoint x="460" y="1270" as="sourcePoint" />
            <mxPoint x="510" y="1220" as="targetPoint" />
          </mxGeometry>
        </mxCell>
        <mxCell id="n0N5KXo2KfuKOkcl6Kut-5" value="" style="endArrow=none;html=1;rounded=0;entryX=0.5;entryY=1.067;entryDx=0;entryDy=0;entryPerimeter=0;exitX=0.5;exitY=0;exitDx=0;exitDy=0;" edge="1" parent="1" source="3_Jl5_TaxesmlZ9jGOSC-184" target="3_Jl5_TaxesmlZ9jGOSC-181">
          <mxGeometry width="50" height="50" relative="1" as="geometry">
            <mxPoint x="460" y="1270" as="sourcePoint" />
            <mxPoint x="510" y="1220" as="targetPoint" />
          </mxGeometry>
        </mxCell>
      </root>
    </mxGraphModel>
  </diagram>
  <diagram id="0ssOqW6uIC6Db3SFQFdO" name="서점연습">
    <mxGraphModel dx="1498" dy="1893" grid="1" gridSize="10" guides="1" tooltips="1" connect="0" arrows="1" fold="1" page="1" pageScale="1" pageWidth="827" pageHeight="1169" math="0" shadow="0">
      <root>
        <mxCell id="0" />
        <mxCell id="1" parent="0" />
        <mxCell id="sQCNWZJ9mBGC_mKv8bPZ-1" value="&lt;div style=&quot;text-align: center;&quot;&gt;&lt;span style=&quot;background-color: initial;&quot;&gt;&lt;b&gt;&lt;font style=&quot;font-size: 22px;&quot;&gt;[요구사항]&lt;/font&gt;&lt;/b&gt;&lt;/span&gt;&lt;/div&gt;&lt;div&gt;&lt;div&gt;&lt;br&gt;&lt;/div&gt;&lt;div&gt;마당서점은 출판사에서 도서를 공급받아 판매한다&lt;/div&gt;&lt;div&gt;.&amp;nbsp;&lt;/div&gt;&lt;div&gt;판매 내역은 매일 기록으로 남기며, 고객서비스와 매출 관리에 활용한다&lt;/div&gt;&lt;div&gt;&lt;br&gt;&lt;/div&gt;&lt;div&gt;마당서점은 판매히는 도서의 도서번호, 도서 이름, 출판사이름, 도서단가를 주요 정보로 보유하고 있댜&lt;/div&gt;&lt;div&gt;&lt;br&gt;&lt;/div&gt;&lt;div&gt;&lt;span style=&quot;background-color: initial;&quot;&gt;또한 구매한 도서들을 납품한 출판사와 출판사 담당자이름 전화번호를 관리한댜&lt;/span&gt;&lt;/div&gt;&lt;div&gt;&lt;span style=&quot;background-color: initial;&quot;&gt;&amp;nbsp;&lt;/span&gt;&lt;/div&gt;&lt;div&gt;또한 책이 판매될 때마다 고객들의 고객이름, 주소, 전화번호를 기록하고 있다.&lt;/div&gt;&lt;div&gt;&lt;br&gt;&lt;/div&gt;&lt;div&gt;고객에게 판매한 도서는 판매한날, 고객별 주문금액을 추가로 관리해야 하며&lt;/div&gt;&lt;div&gt;&lt;br&gt;&lt;/div&gt;&lt;div&gt;&lt;span style=&quot;background-color: initial;&quot;&gt;고객들은 여러 번에 걸쳐 다양한 도서를 구매할 수 있다.&lt;/span&gt;&lt;/div&gt;&lt;/div&gt;" style="text;html=1;align=left;verticalAlign=middle;resizable=0;points=[];autosize=1;strokeColor=none;fillColor=none;" vertex="1" parent="1">
          <mxGeometry x="134" y="-25" width="560" height="240" as="geometry" />
        </mxCell>
        <mxCell id="sQCNWZJ9mBGC_mKv8bPZ-2" value="&lt;b&gt;도서 (&lt;u&gt;도서번호&lt;/u&gt;, 도서이름, 출판사이름, 도서단가)&lt;/b&gt;" style="text;html=1;align=left;verticalAlign=middle;resizable=0;points=[];autosize=1;strokeColor=none;fillColor=none;" vertex="1" parent="1">
          <mxGeometry x="254" y="260" width="280" height="30" as="geometry" />
        </mxCell>
        <mxCell id="sQCNWZJ9mBGC_mKv8bPZ-3" value="&lt;b&gt;고객(&lt;u&gt;고객번호&lt;/u&gt;,고객이름, 주소, 전화번호)&lt;/b&gt;" style="text;html=1;align=left;verticalAlign=middle;resizable=0;points=[];autosize=1;strokeColor=none;fillColor=none;" vertex="1" parent="1">
          <mxGeometry x="254" y="290" width="240" height="30" as="geometry" />
        </mxCell>
        <mxCell id="sQCNWZJ9mBGC_mKv8bPZ-4" value="&lt;b&gt;출판사(&lt;u&gt;출판사번호&lt;/u&gt;, 출판사이름, 담당자이름, 전화번호)&lt;/b&gt;" style="text;html=1;align=left;verticalAlign=middle;resizable=0;points=[];autosize=1;strokeColor=none;fillColor=none;" vertex="1" parent="1">
          <mxGeometry x="254" y="320" width="320" height="30" as="geometry" />
        </mxCell>
        <mxCell id="JOdFcPFctYrL2FQmU291-1" value="- 도서(N)와 출판사(1) 의 관계: 1:N 관계&lt;div&gt;- 고객과 도서의 관계: M:N 관계&lt;/div&gt;&lt;div&gt;- 도서를 고객이 주문하는 내용을 기록으로 남겨야 함&lt;/div&gt;" style="text;html=1;align=left;verticalAlign=middle;resizable=0;points=[];autosize=1;strokeColor=none;fillColor=none;" vertex="1" parent="1">
          <mxGeometry x="250" y="370" width="300" height="60" as="geometry" />
        </mxCell>
        <mxCell id="JOdFcPFctYrL2FQmU291-2" value="" style="group" vertex="1" connectable="0" parent="1">
          <mxGeometry x="-80" y="480" width="370" height="110" as="geometry" />
        </mxCell>
        <mxCell id="sQCNWZJ9mBGC_mKv8bPZ-5" value="도서" style="whiteSpace=wrap;html=1;align=center;fontStyle=1" vertex="1" parent="JOdFcPFctYrL2FQmU291-2">
          <mxGeometry x="130" width="100" height="40" as="geometry" />
        </mxCell>
        <mxCell id="sQCNWZJ9mBGC_mKv8bPZ-6" value="&lt;u&gt;도서번호&lt;/u&gt;" style="ellipse;whiteSpace=wrap;html=1;align=center;" vertex="1" parent="JOdFcPFctYrL2FQmU291-2">
          <mxGeometry x="270" width="100" height="40" as="geometry" />
        </mxCell>
        <mxCell id="sQCNWZJ9mBGC_mKv8bPZ-7" value="도서이름" style="ellipse;whiteSpace=wrap;html=1;align=center;" vertex="1" parent="JOdFcPFctYrL2FQmU291-2">
          <mxGeometry x="190" y="70" width="100" height="40" as="geometry" />
        </mxCell>
        <mxCell id="sQCNWZJ9mBGC_mKv8bPZ-8" value="출판사이름" style="ellipse;whiteSpace=wrap;html=1;align=center;" vertex="1" parent="JOdFcPFctYrL2FQmU291-2">
          <mxGeometry x="60" y="70" width="100" height="40" as="geometry" />
        </mxCell>
        <mxCell id="sQCNWZJ9mBGC_mKv8bPZ-9" value="도서단가" style="ellipse;whiteSpace=wrap;html=1;align=center;" vertex="1" parent="JOdFcPFctYrL2FQmU291-2">
          <mxGeometry width="100" height="40" as="geometry" />
        </mxCell>
        <mxCell id="sQCNWZJ9mBGC_mKv8bPZ-10" value="" style="line;strokeWidth=1;rotatable=0;dashed=0;labelPosition=right;align=left;verticalAlign=middle;spacingTop=0;spacingLeft=6;points=[];portConstraint=eastwest;" vertex="1" parent="JOdFcPFctYrL2FQmU291-2">
          <mxGeometry x="100" y="15" width="30" height="10" as="geometry" />
        </mxCell>
        <mxCell id="sQCNWZJ9mBGC_mKv8bPZ-11" value="" style="line;strokeWidth=1;rotatable=0;dashed=0;labelPosition=right;align=left;verticalAlign=middle;spacingTop=0;spacingLeft=6;points=[];portConstraint=eastwest;" vertex="1" parent="JOdFcPFctYrL2FQmU291-2">
          <mxGeometry x="230" y="15" width="40" height="10" as="geometry" />
        </mxCell>
        <mxCell id="sQCNWZJ9mBGC_mKv8bPZ-29" value="" style="endArrow=none;html=1;rounded=0;exitX=0.5;exitY=0;exitDx=0;exitDy=0;entryX=0.5;entryY=1;entryDx=0;entryDy=0;" edge="1" parent="JOdFcPFctYrL2FQmU291-2">
          <mxGeometry width="50" height="50" relative="1" as="geometry">
            <mxPoint x="110" y="70" as="sourcePoint" />
            <mxPoint x="180" y="40" as="targetPoint" />
          </mxGeometry>
        </mxCell>
        <mxCell id="sQCNWZJ9mBGC_mKv8bPZ-30" value="" style="endArrow=none;html=1;rounded=0;exitX=0.5;exitY=0;exitDx=0;exitDy=0;entryX=0.5;entryY=1;entryDx=0;entryDy=0;" edge="1" parent="JOdFcPFctYrL2FQmU291-2">
          <mxGeometry width="50" height="50" relative="1" as="geometry">
            <mxPoint x="240" y="70" as="sourcePoint" />
            <mxPoint x="180" y="40" as="targetPoint" />
          </mxGeometry>
        </mxCell>
        <mxCell id="JOdFcPFctYrL2FQmU291-3" value="" style="group" vertex="1" connectable="0" parent="1">
          <mxGeometry x="630" y="480" width="370" height="110" as="geometry" />
        </mxCell>
        <mxCell id="sQCNWZJ9mBGC_mKv8bPZ-13" value="고객" style="whiteSpace=wrap;html=1;align=center;fontStyle=1" vertex="1" parent="JOdFcPFctYrL2FQmU291-3">
          <mxGeometry x="130" width="100" height="40" as="geometry" />
        </mxCell>
        <mxCell id="sQCNWZJ9mBGC_mKv8bPZ-14" value="전화번호" style="ellipse;whiteSpace=wrap;html=1;align=center;" vertex="1" parent="JOdFcPFctYrL2FQmU291-3">
          <mxGeometry x="270" width="100" height="40" as="geometry" />
        </mxCell>
        <mxCell id="sQCNWZJ9mBGC_mKv8bPZ-15" value="주소" style="ellipse;whiteSpace=wrap;html=1;align=center;" vertex="1" parent="JOdFcPFctYrL2FQmU291-3">
          <mxGeometry x="190" y="70" width="100" height="40" as="geometry" />
        </mxCell>
        <mxCell id="sQCNWZJ9mBGC_mKv8bPZ-16" value="고객이름" style="ellipse;whiteSpace=wrap;html=1;align=center;" vertex="1" parent="JOdFcPFctYrL2FQmU291-3">
          <mxGeometry x="60" y="70" width="100" height="40" as="geometry" />
        </mxCell>
        <mxCell id="sQCNWZJ9mBGC_mKv8bPZ-17" value="&lt;u&gt;고객번호&lt;/u&gt;" style="ellipse;whiteSpace=wrap;html=1;align=center;" vertex="1" parent="JOdFcPFctYrL2FQmU291-3">
          <mxGeometry width="100" height="40" as="geometry" />
        </mxCell>
        <mxCell id="sQCNWZJ9mBGC_mKv8bPZ-18" value="" style="line;strokeWidth=1;rotatable=0;dashed=0;labelPosition=right;align=left;verticalAlign=middle;spacingTop=0;spacingLeft=6;points=[];portConstraint=eastwest;" vertex="1" parent="JOdFcPFctYrL2FQmU291-3">
          <mxGeometry x="100" y="15" width="30" height="10" as="geometry" />
        </mxCell>
        <mxCell id="sQCNWZJ9mBGC_mKv8bPZ-19" value="" style="line;strokeWidth=1;rotatable=0;dashed=0;labelPosition=right;align=left;verticalAlign=middle;spacingTop=0;spacingLeft=6;points=[];portConstraint=eastwest;" vertex="1" parent="JOdFcPFctYrL2FQmU291-3">
          <mxGeometry x="230" y="15" width="40" height="10" as="geometry" />
        </mxCell>
        <mxCell id="sQCNWZJ9mBGC_mKv8bPZ-31" value="" style="endArrow=none;html=1;rounded=0;exitX=0.5;exitY=0;exitDx=0;exitDy=0;entryX=0.5;entryY=1;entryDx=0;entryDy=0;" edge="1" parent="JOdFcPFctYrL2FQmU291-3">
          <mxGeometry width="50" height="50" relative="1" as="geometry">
            <mxPoint x="110" y="70" as="sourcePoint" />
            <mxPoint x="180" y="40" as="targetPoint" />
          </mxGeometry>
        </mxCell>
        <mxCell id="sQCNWZJ9mBGC_mKv8bPZ-32" value="" style="endArrow=none;html=1;rounded=0;exitX=0.5;exitY=0;exitDx=0;exitDy=0;entryX=0.5;entryY=1;entryDx=0;entryDy=0;" edge="1" parent="JOdFcPFctYrL2FQmU291-3">
          <mxGeometry width="50" height="50" relative="1" as="geometry">
            <mxPoint x="236" y="70" as="sourcePoint" />
            <mxPoint x="176" y="40" as="targetPoint" />
          </mxGeometry>
        </mxCell>
        <mxCell id="JOdFcPFctYrL2FQmU291-4" value="" style="group" vertex="1" connectable="0" parent="1">
          <mxGeometry x="-80" y="830" width="370" height="110" as="geometry" />
        </mxCell>
        <mxCell id="sQCNWZJ9mBGC_mKv8bPZ-20" value="출판사" style="whiteSpace=wrap;html=1;align=center;fontStyle=1" vertex="1" parent="JOdFcPFctYrL2FQmU291-4">
          <mxGeometry x="130" width="100" height="40" as="geometry" />
        </mxCell>
        <mxCell id="sQCNWZJ9mBGC_mKv8bPZ-21" value="전화번호" style="ellipse;whiteSpace=wrap;html=1;align=center;" vertex="1" parent="JOdFcPFctYrL2FQmU291-4">
          <mxGeometry x="270" width="100" height="40" as="geometry" />
        </mxCell>
        <mxCell id="sQCNWZJ9mBGC_mKv8bPZ-22" value="담당자이름" style="ellipse;whiteSpace=wrap;html=1;align=center;" vertex="1" parent="JOdFcPFctYrL2FQmU291-4">
          <mxGeometry x="190" y="70" width="100" height="40" as="geometry" />
        </mxCell>
        <mxCell id="sQCNWZJ9mBGC_mKv8bPZ-23" value="출판사이름" style="ellipse;whiteSpace=wrap;html=1;align=center;" vertex="1" parent="JOdFcPFctYrL2FQmU291-4">
          <mxGeometry x="60" y="70" width="100" height="40" as="geometry" />
        </mxCell>
        <mxCell id="sQCNWZJ9mBGC_mKv8bPZ-24" value="&lt;u&gt;출판사번호&lt;/u&gt;" style="ellipse;whiteSpace=wrap;html=1;align=center;" vertex="1" parent="JOdFcPFctYrL2FQmU291-4">
          <mxGeometry width="100" height="40" as="geometry" />
        </mxCell>
        <mxCell id="sQCNWZJ9mBGC_mKv8bPZ-25" value="" style="line;strokeWidth=1;rotatable=0;dashed=0;labelPosition=right;align=left;verticalAlign=middle;spacingTop=0;spacingLeft=6;points=[];portConstraint=eastwest;" vertex="1" parent="JOdFcPFctYrL2FQmU291-4">
          <mxGeometry x="100" y="15" width="30" height="10" as="geometry" />
        </mxCell>
        <mxCell id="sQCNWZJ9mBGC_mKv8bPZ-26" value="" style="line;strokeWidth=1;rotatable=0;dashed=0;labelPosition=right;align=left;verticalAlign=middle;spacingTop=0;spacingLeft=6;points=[];portConstraint=eastwest;" vertex="1" parent="JOdFcPFctYrL2FQmU291-4">
          <mxGeometry x="230" y="15" width="40" height="10" as="geometry" />
        </mxCell>
        <mxCell id="sQCNWZJ9mBGC_mKv8bPZ-27" value="" style="endArrow=none;html=1;rounded=0;exitX=0.5;exitY=0;exitDx=0;exitDy=0;entryX=0.5;entryY=1;entryDx=0;entryDy=0;" edge="1" parent="JOdFcPFctYrL2FQmU291-4" source="sQCNWZJ9mBGC_mKv8bPZ-23" target="sQCNWZJ9mBGC_mKv8bPZ-20">
          <mxGeometry width="50" height="50" relative="1" as="geometry">
            <mxPoint x="156" y="-10" as="sourcePoint" />
            <mxPoint x="206" y="-60" as="targetPoint" />
          </mxGeometry>
        </mxCell>
        <mxCell id="sQCNWZJ9mBGC_mKv8bPZ-28" value="" style="endArrow=none;html=1;rounded=0;exitX=0.5;exitY=0;exitDx=0;exitDy=0;entryX=0.5;entryY=1;entryDx=0;entryDy=0;" edge="1" parent="JOdFcPFctYrL2FQmU291-4" source="sQCNWZJ9mBGC_mKv8bPZ-22" target="sQCNWZJ9mBGC_mKv8bPZ-20">
          <mxGeometry width="50" height="50" relative="1" as="geometry">
            <mxPoint x="156" y="-10" as="sourcePoint" />
            <mxPoint x="206" y="-60" as="targetPoint" />
          </mxGeometry>
        </mxCell>
        <mxCell id="JOdFcPFctYrL2FQmU291-5" value="" style="endArrow=none;html=1;rounded=0;entryX=0.5;entryY=0;entryDx=0;entryDy=0;exitX=0.5;exitY=1;exitDx=0;exitDy=0;" edge="1" parent="1" source="JOdFcPFctYrL2FQmU291-12" target="sQCNWZJ9mBGC_mKv8bPZ-20">
          <mxGeometry relative="1" as="geometry">
            <mxPoint x="90" y="730" as="sourcePoint" />
            <mxPoint x="490" y="600" as="targetPoint" />
          </mxGeometry>
        </mxCell>
        <mxCell id="JOdFcPFctYrL2FQmU291-6" value="1" style="resizable=0;html=1;whiteSpace=wrap;align=right;verticalAlign=bottom;" connectable="0" vertex="1" parent="JOdFcPFctYrL2FQmU291-5">
          <mxGeometry x="1" relative="1" as="geometry" />
        </mxCell>
        <mxCell id="JOdFcPFctYrL2FQmU291-7" value="주문" style="shape=rhombus;perimeter=rhombusPerimeter;whiteSpace=wrap;html=1;align=center;" vertex="1" parent="1">
          <mxGeometry x="400" y="660" width="120" height="60" as="geometry" />
        </mxCell>
        <mxCell id="JOdFcPFctYrL2FQmU291-8" value="" style="endArrow=none;html=1;rounded=0;entryX=0;entryY=0.75;entryDx=0;entryDy=0;exitX=1;exitY=0.5;exitDx=0;exitDy=0;" edge="1" parent="1" source="JOdFcPFctYrL2FQmU291-7" target="sQCNWZJ9mBGC_mKv8bPZ-13">
          <mxGeometry relative="1" as="geometry">
            <mxPoint x="330" y="600" as="sourcePoint" />
            <mxPoint x="490" y="600" as="targetPoint" />
          </mxGeometry>
        </mxCell>
        <mxCell id="JOdFcPFctYrL2FQmU291-9" value="N" style="resizable=0;html=1;whiteSpace=wrap;align=right;verticalAlign=bottom;" connectable="0" vertex="1" parent="JOdFcPFctYrL2FQmU291-8">
          <mxGeometry x="1" relative="1" as="geometry" />
        </mxCell>
        <mxCell id="JOdFcPFctYrL2FQmU291-10" value="" style="endArrow=none;html=1;rounded=0;exitX=0;exitY=0.5;exitDx=0;exitDy=0;entryX=1;entryY=0.75;entryDx=0;entryDy=0;" edge="1" parent="1" source="JOdFcPFctYrL2FQmU291-7" target="sQCNWZJ9mBGC_mKv8bPZ-5">
          <mxGeometry relative="1" as="geometry">
            <mxPoint x="330" y="600" as="sourcePoint" />
            <mxPoint x="490" y="600" as="targetPoint" />
          </mxGeometry>
        </mxCell>
        <mxCell id="JOdFcPFctYrL2FQmU291-11" value="N" style="resizable=0;html=1;whiteSpace=wrap;align=right;verticalAlign=bottom;" connectable="0" vertex="1" parent="JOdFcPFctYrL2FQmU291-10">
          <mxGeometry x="1" relative="1" as="geometry" />
        </mxCell>
        <mxCell id="JOdFcPFctYrL2FQmU291-12" value="납품" style="shape=rhombus;perimeter=rhombusPerimeter;whiteSpace=wrap;html=1;align=center;" vertex="1" parent="1">
          <mxGeometry x="40" y="650" width="120" height="60" as="geometry" />
        </mxCell>
        <mxCell id="JOdFcPFctYrL2FQmU291-13" value="" style="endArrow=none;html=1;rounded=0;" edge="1" parent="1">
          <mxGeometry relative="1" as="geometry">
            <mxPoint x="100" y="650" as="sourcePoint" />
            <mxPoint x="100" y="520" as="targetPoint" />
          </mxGeometry>
        </mxCell>
        <mxCell id="JOdFcPFctYrL2FQmU291-14" value="N" style="resizable=0;html=1;whiteSpace=wrap;align=right;verticalAlign=bottom;" connectable="0" vertex="1" parent="JOdFcPFctYrL2FQmU291-13">
          <mxGeometry x="1" relative="1" as="geometry" />
        </mxCell>
        <mxCell id="JOdFcPFctYrL2FQmU291-15" value="판매한 날 주문한 금액" style="text;html=1;align=center;verticalAlign=middle;resizable=0;points=[];autosize=1;strokeColor=none;fillColor=none;" vertex="1" parent="1">
          <mxGeometry x="390" y="730" width="140" height="30" as="geometry" />
        </mxCell>
      </root>
    </mxGraphModel>
  </diagram>
</mxfile>
